<?xml version="1.0" encoding="utf-8"?>
<!-- Generator: Adobe Illustrator 19.1.0, SVG Export Plug-In . SVG Version: 6.00 Build 0)  -->
<svg version="1.1" id="Layer_1" xmlns="http://www.w3.org/2000/svg" xmlns:xlink="http://www.w3.org/1999/xlink" x="0px" y="0px"
	 viewBox="-345 173.8 268.3 214.2" style="enable-background:new -345 173.8 268.3 214.2;" xml:space="preserve">
<g>
	<path id="XMLID_1_" style="fill:#EFEFEF;" d="M-109.7,388H-312c-7.2,0-13-5.8-13-12.9V218.7c0-7.2,5.9-13,13-13h202.4
		c7.2,0,13,5.9,13,13v156.4C-96.6,382.2-102.5,388-109.7,388z"/>
	<path id="XMLID_6_" style="fill:#D1D3D5;" d="M-109.7,205.6H-312c-7.2,0-13,5.9-13,13v12.4h228.4v-12.4
		C-96.6,211.5-102.5,205.6-109.7,205.6z"/>
	<g id="XMLID_2_">
		<circle id="XMLID_7_" style="fill:#B6BEC4;" cx="-308.8" cy="218.7" r="6"/>
		<circle id="XMLID_8_" style="fill:#B6BEC4;" cx="-292.6" cy="218.7" r="6"/>
		<circle id="XMLID_9_" style="fill:#B6BEC4;" cx="-276.3" cy="218.7" r="6"/>
	</g>
	<rect id="XMLID_3_" x="-154.2" y="352.9" style="fill:#D2D3D7;" width="44.8" height="25.3"/>
	<rect id="XMLID_19_" x="-154.2" y="318.5" style="fill:#D2D3D7;" width="44.8" height="27.2"/>
	<rect id="XMLID_17_" x="-154.2" y="294.7" style="fill:#D2D3D7;" width="44.8" height="15.7"/>
	<rect id="XMLID_18_" x="-154.2" y="240.7" style="fill:#D2D3D7;" width="44.8" height="42.6"/>
	<rect id="XMLID_5_" x="-312.2" y="240.7" style="fill:#94A0AA;" width="146.2" height="42.6"/>
	<g id="XMLID_15_">
		<g id="XMLID_36_">
			<path id="XMLID_37_" style="fill:#94A0AA;" d="M-265.6,298.1v40.8h-42v-40.8H-265.6 M-262.2,294.7H-311v47.6h48.8V294.7
				L-262.2,294.7z"/>
		</g>
	</g>
	<g id="XMLID_16_">
		<path id="XMLID_30_" style="fill:#488DCB;" d="M-165.7,370L-165.7,370c0-4.6-3.7-8.3-8.3-8.3h-51.4c-4.6,0-8.3,3.7-8.3,8.3l0,0
			c0,4.6,3.7,8.3,8.3,8.3h51.4C-169.4,378.2-165.7,374.5-165.7,370z"/>
	</g>
	<rect id="XMLID_11_" x="-254.7" y="294.7" style="fill:#D2D3D7;" width="87.7" height="13.5"/>
	<rect id="XMLID_12_" x="-254.7" y="314.9" style="fill:#D2D3D7;" width="87.7" height="7.2"/>
	<rect id="XMLID_13_" x="-254.7" y="327" style="fill:#D2D3D7;" width="87.7" height="7.2"/>
	<rect id="XMLID_14_" x="-254.7" y="340.2" style="fill:#D2D3D7;" width="76.8" height="7.2"/>
</g>
</svg>
