<svg id="Layer_1" data-name="Layer 1" xmlns="http://www.w3.org/2000/svg" viewBox="0 0 6039.52 1948.69"><defs><style>.cls-1{fill:#fff;}</style></defs><title>vodafone</title><polygon class="cls-1" points="269.07 763.62 444.98 1227.56 615.09 763.62 835.44 763.62 547.43 1474.99 338.66 1474.99 39.05 763.62 269.07 763.62"/><path class="cls-1" d="M1210.45,1492.38c-228.09,0-371.14-160.43-371.14-373.05s143-373.09,371.14-373.09c230,0,373.07,160.43,373.07,373.09S1440.47,1492.38,1210.45,1492.38Zm0-583.78c-110.19,0-164.3,96.69-164.3,212.64,0,114,54.12,208.77,164.3,208.77s164.3-94.73,164.3-208.77C1374.77,1005.29,1320.63,908.6,1210.45,908.6Z"/><path class="cls-1" d="M2376,473.68v987.77a1482.13,1482.13,0,0,1-303.48,30.93c-245.5,0-404-129.51-404-376.94,0-208.77,143-369.2,357.6-369.2,61.85,0,121.79,13.54,154.65,27.06V473.68ZM2180.83,941.49c-30.93-17.41-79.26-32.86-139.18-32.86-106.32,0-166.24,90.84-166.24,206.83,0,141.11,90.84,212.64,201,212.64,38.66,0,77.31-1.93,104.38-7.72Z"/><path class="cls-1" d="M2466.91,1134.78c0-224.24,166.26-388.55,404-388.55,117.95,0,237.76,29,305.42,56.09V1475h-174l-13.52-61.85c-40.62,46.4-98.62,79.26-191.38,79.26C2609.94,1492.38,2466.91,1355.13,2466.91,1134.78Zm512.25-206.83c-21.28-5.8-63.81-13.54-112.12-13.54-94.71,0-193.3,73.48-193.3,212.64,0,137.22,77.33,203,164.3,203,65.72,0,117.9-34.79,141.11-73.46Z"/><path class="cls-1" d="M3553.26,456.29c52.18,0,116,9.67,150.76,17.39V643.79c-30.95-3.87-83.13-7.74-110.19-7.74-46.38,0-63.77,7.74-79.26,21.28-13.54,13.52-17.37,32.86-17.37,63.79v42.53h179.73V935.7H3497.21V1475H3301.94V705.66c0-83.13,27.08-145,71.54-187.51C3416,477.55,3481.74,456.29,3553.26,456.29Z"/><path class="cls-1" d="M4067.41,1492.38c-230,0-373.05-160.43-373.05-373.05s143-373.09,373.05-373.09,371.16,160.43,371.16,373.09S4297.47,1492.38,4067.41,1492.38Zm0-583.78c-110.15,0-164.28,96.69-164.28,212.64,0,114,54.14,208.77,164.28,208.77s164.32-94.73,164.32-208.77C4231.75,1005.29,4177.64,908.6,4067.41,908.6Z"/><path class="cls-1" d="M5032,1084.51c0-106.3-54.12-160.46-162.41-160.46-54.12,0-114,9.67-145,17.41V1475H4529.41V802.31c88.89-30.95,216.51-56.09,342.12-56.09,226.18,0,357.6,112.14,357.6,299.64V1475H5032V1084.51Z"/><path class="cls-1" d="M5320,1115.44c0-226.16,143-371.14,349.86-371.14,208.79,0,330.56,162.37,330.56,361.47,0,27.06-1.93,63.79-3.91,79.24H5519.14c9.67,100.52,75.41,154.67,204.9,154.67,110.19,0,199.1-23.23,249.35-38.66v129.51c-63.79,30.93-146.92,59.92-257.08,59.92C5465,1490.45,5320,1357.07,5320,1115.44ZM5820.69,1042c-5.8-73.46-58-133.4-150.81-133.4S5530.73,958.89,5523,1042Z"/></svg>