<?xml version="1.0" encoding="utf-8"?>
<!-- Generator: Adobe Illustrator 21.1.0, SVG Export Plug-In . SVG Version: 6.00 Build 0)  -->
<svg version="1.1" id="Layer_1" xmlns="http://www.w3.org/2000/svg" xmlns:xlink="http://www.w3.org/1999/xlink" x="0px" y="0px"
	 viewBox="0 0 6039.5 1948.7" style="enable-background:new 0 0 6039.5 1948.7;" xml:space="preserve">
<style type="text/css">
	.st0{fill:#FFFFFF;}
</style>
<title>aliexpress</title>
<path class="st0" d="M1502.6,862.2c0-141.7,1.3-283.5-0.9-425.1c-0.6-36.1,10.7-45.9,45.5-45.5c156.1,1.5,312.1,0.4,468.2,0.8
	c42.7,0.1,43.6,1,43.3,46.2c-0.7,93.8,10.9,77.2-74.8,78c-105.8,1-211.7,1.2-317.5-0.3c-29.6-0.4-40.9,7.5-39.9,38.8
	c2.1,66.3,2.4,132.8-0.1,199.1c-1.3,34.3,7.7,46.5,44.1,45.6c96.8-2.5,193.7-1,290.6-0.8c47.4,0.1,47.4,0.3,47.9,45.2
	c0.9,72.4,0.9,72.4-68.9,72.4c-93.3,0-186.6,0.8-279.8-0.5c-26-0.4-34.2,7.9-33.6,33.8c1.5,71.7,2.1,143.6-0.2,215.2
	c-1.1,33.5,9.8,42.6,42.7,42.1c125.6-1.8,251.1-0.9,376.7-0.6c46.1,0.1,47,0.5,46.4,46.9c-1.1,86.9,12.8,73.2-73.3,73.7
	c-152.5,0.8-305,0.4-457.4,0.1c-68.3-0.1-58.5,6.1-58.8-61.3C1502.3,1131.3,1502.6,996.7,1502.6,862.2z"/>
<path class="st0" d="M2146.3,1325.6c78.1-101.3,151-196.2,224.1-290.9c32.4-42.1,32.6-42.1-0.3-84.9
	c-72.9-94.8-145.9-189.6-225.1-292.5c45.8,0,82.5,1.4,119.1-0.5c24.6-1.3,34.5,15.1,46.4,30.6c53.6,69.4,107.2,138.8,165.4,214
	c42.8-55.2,88.2-103.5,121.4-159.1c41.9-70.3,97-99.3,176.5-85.1c6.9,1.2,14.2,0.2,22.1,0.2c4.6,18.3-9.5,26.5-17.1,36.5
	c-67.4,88.3-134.4,177-203.9,263.7c-20.5,25.6-21.9,42.8-0.6,69.1c65.3,80.8,127.9,163.9,190.9,246.6c11.7,15.3,26.7,28.7,35,54.1
	c-40.9,0-79.4-0.7-117.8,0.3c-22.5,0.6-30.2-16.6-40.9-30.3c-53.8-69.2-107.3-138.8-165.4-214c-42.5,55.1-82.6,106.8-122.4,158.6
	c-66.8,86.8-66.8,86.9-175.3,85.4C2171.1,1327.1,2164,1326.5,2146.3,1325.6z"/>
<path class="st0" d="M5329.2,1223.2l83.5-64.6c17.8,5.5,25.3,20.7,37,30.6c64.6,54.8,137.7,66.4,216.4,39.6
	c39.6-13.4,68.1-39.8,69.8-85.8c1.4-40.4-18-69.8-66.5-86.8c-47.1-16.6-96.2-27.5-144.7-39.9c-24.3-6.3-48-14.4-71-24.4
	c-130.4-55.4-115.9-218.5-45.7-283.6c110.6-102.8,316.5-91.7,412.5,24.8c14.8,18,16.4,29.3-5,41.8s-41.9,27.1-65,42.1
	c-45.8-55.3-103.9-81.3-175.7-73.2c-29.2,3.3-56.1,12.5-78.3,32c-42.7,37.6-38.8,86.4,10,115.4c32.6,19.4,69.3,28.8,106.3,36.3
	c42.1,8.5,84.5,16.7,124.4,33.1c67.6,27.8,113.5,73.1,119.5,150.9c6.4,84.4-19.7,152.7-96,194.9
	C5617.3,1385.7,5422.1,1347,5329.2,1223.2z"/>
<path class="st0" d="M4748.4,1223.4l83.4-65.1c17,6.3,25,20.9,36.8,30.9c64.6,54.5,137.6,66.5,216.5,39.8
	c39.8-13.5,68.1-39.6,69.5-85.7c1.2-41.4-17.5-69.1-66.1-87c-36.8-13.6-75.5-21.8-113.7-31.4c-36.5-9.2-73.1-18.2-106.8-35.3
	c-100.2-50.6-126.6-178.1-55.2-264.9c99-120.4,338.4-112.9,429.9,12.9c10.8,14.9,12.2,24-4.3,34.3c-22.7,14.2-44.7,29.5-68.6,45.5
	c-46.3-55.6-104.3-81.5-176.2-73.4c-29.3,3.3-56.1,12.6-78.3,32.1c-42.7,37.5-38.7,86.5,10.2,115.5c32.6,19.3,69.3,28.8,106.3,36.2
	c42.1,8.4,84.5,16.7,124.4,33c69.9,28.7,115.4,76.2,119.9,156.3c4.7,84.9-24.1,152.1-101.1,192.2
	C5024.8,1387.4,4835.5,1341,4748.4,1223.4z"/>
<path class="st0" d="M3778.9,720.5c56.4-42.9,112.4-69.4,175-80.8c55.2-10.1,57.9-8,58.1,46.7c0,1.8,0,3.6,0,5.4
	c0.1,58,0.1,58-53.9,71.5c-108.1,27-179.9,116.7-181.6,230.4c-1.5,98.5-1.4,197.1,0.2,295.6c0.6,31-9.6,39.5-39.5,38.6
	c-99.7-3.3-79.9,12.2-80.5-77.1c-1.3-182.8-0.4-365.6-0.2-548.3c0.1-45.6,0.4-45.6,46.8-46c3.6,0,7.2,0,10.8,0
	C3774.4,656.2,3774.4,656.2,3778.9,720.5z"/>
<path class="st0" d="M1047,862.2c0,138,0,276-0.1,414.1c-0.1,50.3-0.3,50.3-48.5,50.8c-7.2,0.1-14.3,0.1-21.5,0
	c-49.2-0.4-49.5-0.4-49.5-49.8c-0.1-277.8-0.1-555.7,0-833.5c0-51.9,0.3-51.9,53.5-52.2c9,0,18,0.8,26.9-0.1
	c30.5-3.1,40.3,10.2,39.9,40.5c-1.5,102.1-0.6,204.3-0.6,306.5L1047,862.2z"/>
<path class="st0" d="M1332.2,997.6c0,96.8-1,193.6,0.6,290.4c0.5,30.1-8.6,40.6-39.3,39.8c-100.5-2.6-80.6,9.2-81.1-77.5
	c-1.2-181-0.5-362.1-0.3-543.1c0.1-47,0.5-47.8,46.4-47.5c85.6,0.6,72.9-9.8,73.6,74.5C1332.7,821.9,1332.2,909.8,1332.2,997.6z"/>
<path class="st0" d="M1457.7,444.9c-121.6,45.8-134.2,37.6-188.7,184.6c-9.1-106.3-71.5-159.7-171.8-179.9
	c99.7-16.9,158.8-71.7,172.3-181c19.9,48.1,26.2,94.8,62,126.7C1365.7,426,1404.5,443.9,1457.7,444.9z"/>
<path class="st0" d="M6008.9,655c-19.3-21.7-19.3-21.7-42.5,1.8c-15.6-5.2-11.1-24.3-21.9-32.8c-8.2,9.2,3.5,26.5-13.7,31.5
	c-11.1-3.8-11.3-14.1-9.4-21.8c5-20.5-17.1-53.6,13.7-59.5c25.3-4.8,16.6,34.3,32.9,47.4c1.5-1.7,3.5-4.3,5.8-6.4
	c13.1-12.3,3.7-48.1,31.1-40.8c22,5.8,8.4,33.8,10.6,51.8C6016.5,635.5,6020.1,647.5,6008.9,655z"/>
<path class="st0" d="M5850.8,575.1c21.4-3.1,37.1-5.7,56,0.5c-34.4,19.1-11.2,53.2-25.2,80.8
	C5861.5,631.4,5891.1,589.4,5850.8,575.1z"/>
<path class="st0" d="M3225.5,637.2c-199.2-4.8-363.9,151.4-365.9,351c-2.1,208.1-0.5,416.3-0.5,624.4c0,67.8,0,67.8,69,67.4
	c50.5-0.3,50.6-0.3,50.7-53.7c0.1-125.3,0-250.6,0-386.6c73.2,66.9,147.3,104.8,235.1,107.5c186.1,5.8,350.6-151.1,356.2-337.8
	C3576.2,808.2,3422.4,642,3225.5,637.2z M3217.8,1236.9c-129.6,2.1-235.3-105.2-237-240.5c-1.7-136.6,99.3-242.6,232-243.5
	c133.9-0.9,235.9,101.9,236.7,238.5C3450.2,1127.1,3348.7,1234.8,3217.8,1236.9L3217.8,1236.9z"/>
<path class="st0" d="M754.7,1060.9c-81.1-210.5-162.2-421.1-243.3-631.7c-5.1-13.1-6.2-32.5-21-35.1c-35.3-6.2-72.2-7.9-106.8,0.4
	c-22.6,5.5-23.2,34.4-30.6,53.6c-107.3,279.1-214.5,558.3-321.6,837.5c-4.8,12.6-10.6,24.9-9.3,41.5c28.2,0,53.4-1.5,78.2,0.4
	c26.2,2,37.6-9.1,46-33.5c18-52.5,40.7-103.3,59.5-155.5c8.9-24.8,20.3-37.4,49.8-37c120.3,1.8,240.6,1.2,360.9,0.3
	c24.7-0.2,39.5,5.6,47.5,31.7c10.9,35.9,27.2,70.1,40.5,105.2c35.7,94.8,35.6,94.9,136.9,87.6c3.3-0.3,6.4-2.6,12.4-5.3
	C820.8,1234.5,788,1147.6,754.7,1060.9z M267.4,978.8C324.1,831.3,377.7,692,431.3,552.7l10.2,0.8c54,140.7,107.9,281.3,163.1,425.3
	H267.4z"/>
<path class="st0" d="M4199.3,1049.7c138.2-0.5,276.5-0.2,414.7-0.2c89.1,0,89.1,0,88.2-91.7c-2.3-223.9-207-371.7-420.5-303.6
	c-142,45.3-240.5,173-246.7,320c-6.4,150.3,84.8,291,225.1,347.6c141.1,56.9,291.5,20.6,399.8-100c-17.8-14.4-34.4-25.4-47.9-39.4
	c-25.2-26.1-42.2-27.7-73.9-0.9c-118.1,99.9-303.2,52.6-365.5-89.1C4155.5,1053.4,4157.1,1049.8,4199.3,1049.7z M4158.8,936
	c29.2-115.3,127.3-188,238.6-180.7c96.6,6.3,168.6,76.6,183,180.7H4158.8z"/>
</svg>
