<svg xmlns="http://www.w3.org/2000/svg" viewBox="0 0 5090.34 1948.69"><defs><style>.cls-1{fill:#fff;}</style></defs><title>tele2</title><g id="Livello_1" data-name="Livello 1"><polyline class="cls-1" points="67.84 698.29 67.84 967.9 795.16 887.85 795.16 596.06"/><polyline class="cls-1" points="299.98 984.33 299.98 1908.12 566.25 1908.12 566.25 957.15"/><polyline class="cls-1" points="893.48 582.23 893.48 1908.12 1174.04 1908.12 1174.04 542.79"/><polyline class="cls-1" points="1226.32 535.43 1226.32 840.43 1631.51 795.88 1631.51 478.53"/><polyline class="cls-1" points="1226.32 1067.51 1226.32 1378.11 1492.27 1363.52 1492.27 1044.5"/><polyline class="cls-1" points="1226.32 1602.06 1226.32 1908.12 1631.51 1908.12 1631.51 1589.69"/><polyline class="cls-1" points="2679.33 330.79 2679.33 1908.12 3047 1908.12 3047 279.07"/><polyline class="cls-1" points="3115.89 269.44 3115.89 632.24 3651.95 573.36 3651.95 194.11"/><polyline class="cls-1" points="3115.89 905.13 3115.89 1274.68 3467.26 1255.56 3467.26 875.04"/><polyline class="cls-1" points="3115.89 1544.79 3115.89 1908.12 3651.95 1908.12 3651.95 1528.67"/><polyline class="cls-1" points="1738.65 463.44 1738.65 1908.12 2058.24 1908.12 2058.24 418.49"/><polyline class="cls-1" points="2117.97 1575.01 2117.97 1908.12 2581.91 1908.12 2581.91 1560.94"/><path class="cls-1" d="M4853.61,176.23C4737.37,66.44,4567,21.28,4380.54,48.13V450.5c75.53-4.17,136.64,23.95,164,80.32,43,88.84-1.38,222.31-106.16,346-161.64,190.72-591.6,581.26-591.6,581.26l617.2-20.23c377.07-368.52,512.51-592.1,536.82-871.24,12.78-147.63-40.81-290-147.15-390.39"/><polyline class="cls-1" points="3770.59 1524.82 3770.83 1908.12 5022.5 1908.12 5022.5 1487.03"/><path class="cls-1" d="M4308.59,57.18C3944.85,134.55,3766.33,402.11,3787,838.77l387.62-34.39c-17.5-246.65,57.86-305.23,134.17-337.37"/></g></svg>