<svg id="Layer_1" data-name="Layer 1" xmlns="http://www.w3.org/2000/svg" viewBox="0 0 6039.52 1948.69"><defs><style>.cls-1{fill:#fff;}</style></defs><title>allianz</title><path class="cls-1" d="M553.63,1031.18H354.7l107.36-350.5ZM250.5,1425.89,320,1192.22h268.4l63.15,233.67H901L651.52,538.59c-12.63-50.52-44.21-75.78-101-75.78H200v82.1h28.42c37.89,0,56.84,15.79,56.84,44.21,0,18.95-3.16,34.73-18.95,78.94L20,1425.89Z"/><path class="cls-1" d="M1207.27,1425.89V538.59c0-47.36-25.26-72.63-69.47-72.63H923.08v82.1h15.79c37.89,0,53.68,15.79,53.68,53.68V1429h214.72Z"/><path class="cls-1" d="M1595.66,1425.89V538.59c0-47.36-25.26-72.63-69.47-72.63H1311.47v82.1h15.79c37.89,0,53.68,15.79,53.68,53.68V1429h214.72Z"/><path class="cls-1" d="M1980.89,551.22c0-63.15-44.21-101-123.15-101s-123.15,37.89-123.15,101,47.36,101,123.15,101C1936.68,652.27,1980.89,614.37,1980.89,551.22Zm0,874.67V772.26c0-47.36-25.26-75.78-69.47-75.78H1696.7v88.41h12.63c37.89,0,53.68,15.79,53.68,53.68v587.32Z"/><path class="cls-1" d="M2476.64,1081.71v138.94c-37.89,37.89-82.1,63.15-123.15,63.15s-53.68-18.95-53.68-72.63,12.63-78.94,50.52-94.73C2381.91,1103.81,2419.8,1091.18,2476.64,1081.71ZM2179.82,914.35c72.63-34.73,154.72-56.84,217.88-56.84,60,0,82.1,22.1,82.1,85.26v15.79c-88.41,15.79-116.83,18.95-167.36,31.58-28.42,6.32-56.84,15.79-82.1,28.42-88.41,34.73-129.46,107.36-129.46,214.72,0,135.78,56.84,202.09,176.83,202.09,44.21,0,82.1-9.47,116.83-22.1,31.58-15.79,50.52-25.26,94.73-63.15v9.47c0,44.21,22.1,69.47,66.31,69.47h205.25v-82.1h-9.47c-37.89,0-53.68-15.79-53.68-60V942.77c0-183.14-63.15-246.3-243.14-246.3A783.89,783.89,0,0,0,2284,715.42c-53.68,12.63-85.26,25.26-151.57,56.84Z"/><path class="cls-1" d="M3092.38,1425.89V936.45c37.89-41,78.94-60,126.31-60,50.52,0,63.15,18.95,63.15,91.57v461h217.88V930.14c0-113.68-9.47-151.57-44.21-192.62-31.58-34.73-75.78-50.52-135.78-50.52-88.41,0-151.57,28.42-236.82,110.52V769.1c0-47.36-22.1-72.63-66.31-72.63H2808.2v88.41h12.63c37.89,0,53.68,15.79,53.68,53.68v587.32Z"/><path class="cls-1" d="M4175.46,1280.64H3866l296.82-420V712.26H3695.49c-53.68,0-75.78,25.26-75.78,78.94V920.67h88.41V908c0-31.58,15.79-50.52,53.68-50.52h157.88l-300,423.13v145.25h558.9V1280.64Z"/><path class="cls-1" d="M5362.73,1381.68v-802c0-63.15-22.1-85.26-82.1-85.26h-180v85.26h28.42q9.47,0,18.95,9.47c9.47,9.47,9.47,18.95,9.47,41v748.36h205.25Zm101,0H5669V772.26c0-60-22.1-85.26-85.26-85.26h-120Zm-391.55,0V687h-120c-60,0-82.1,25.26-82.1,85.26v609.43Zm802-407.34c0,363.13-258.93,628.37-612.58,628.37s-612.58-265.24-612.58-628.37S4908,346,5261.69,346,5874.27,611.22,5874.27,974.35Zm145.25,0c0-442.07-325.24-773.62-757.84-773.62-435.76,0-761,331.55-761,773.62,0,445.23,325.24,773.62,761,773.62C5694.29,1748,6019.53,1416.42,6019.53,974.35Z"/></svg>