<svg id="Layer_1" data-name="Layer 1" xmlns="http://www.w3.org/2000/svg" viewBox="0 0 6039.52 1948.69"><defs><style>.cls-1{fill:#fff;}</style></defs><title>kreditech</title><path class="cls-1" d="M1855.68,1366.89l-5.13,10.65c-2.06-7.15-1.56-11.27,1.44-15.24Z"/><path class="cls-1" d="M681.71,1439.88H598.82a45.34,45.34,0,0,1-45.21-45.21l92-488.87a45.34,45.34,0,0,1,45.21-45.21h82.88A45.34,45.34,0,0,1,819,905.8l-92,488.87A45.34,45.34,0,0,1,681.71,1439.88Z"/><path class="cls-1" d="M400.22,1439.88H317.34a45.34,45.34,0,0,1-45.21-45.21l56.57-272.54a45.34,45.34,0,0,1,45.21-45.21H456.8A45.34,45.34,0,0,1,502,1122.13l-56.57,272.54A45.34,45.34,0,0,1,400.22,1439.88Z"/><path class="cls-1" d="M150,1439.88H67.12a45.34,45.34,0,0,1-45.21-45.21l9-54.28a45.34,45.34,0,0,1,45.21-45.21H159a45.34,45.34,0,0,1,45.21,45.21l-9,54.28A45.34,45.34,0,0,1,150,1439.88Z"/><path class="cls-1" d="M3949.17,1420.58q-13.66-2.94-27.32-5.89c-67.8-14.46-105.18-56.76-102.29-128,2.09-51.5,13.11-102.85,22.66-153.8,13-69.49,28.48-138.53,42.78-207.78.6-2.89.08-6,.08-9.1-2.24-.94-3.9-2.24-5.56-2.25-63.39-.29-126.77-.3-190.16-.79-13.06-.1-13.14,9.54-14.78,17.66Q3653,1037.44,3632,1144.31c-15.21,76.7-30.58,153.37-45.36,230.15-3.16,16.41-13.82,25-28.22,25.54-38,1.52-76.17,1.64-114.22.62-15.15-.41-22.58-8.36-18.86-26.57q56.51-275.88,111.22-552.12c4.33-21.86,16.54-31.17,36.54-33.24,18-1.87,36.2-3.71,54.31-3.79,89.14-.38,178.28-.53,267.42.17,14.91.12,20.93-4.54,23.51-19,5.92-33.26,13.49-66.23,20.24-99.35,5.69-27.92,9.58-34.59,38.77-36.89,33.47-2.64,67.46-1.59,101,.78,21,1.48,25.1,10,21,30.3-6.88,34.37-14,68.68-21,103-1.19,5.95-1.68,12-2.86,20.82,36.38,0,70.74,0,105.09,0,29.49,0,34.32,3.23,30.91,32.17-2.89,24.56-10,48.78-16.94,72.67-4.91,17-17.46,24.21-35.92,23.63-31.35-1-62.78.31-94.15-.48-13.34-.34-18.72,5-21.22,17.53-18,90.2-36.75,180.26-54.72,270.47-2.43,12.18-2.72,24.93-2.76,37.42-.11,37.33,17,54.72,54.41,52.81,15.91-.81,31.79-6,47.25-10.62,18.09-5.41,25.6-2.26,23,15.85a547.26,547.26,0,0,1-18.54,83.66c-7,22.9-30.31,26.13-50,31.91-13.11,3.86-26.73,6-40.12,8.85Z"/><path class="cls-1" d="M6017.61,964.7c-7.7,39.89-15.09,79.84-23.15,119.65q-28.49,140.77-57.51,281.43c-5.46,26.61-10.3,33.35-38.16,35.21a806.39,806.39,0,0,1-103-.21c-21.78-1.34-25.69-9.22-21.3-30.24,22.76-109.05,45.85-218,68.33-327.14a478.16,478.16,0,0,0,8.79-61.34c3.85-52.48-34.22-81.27-86.28-64.77-50.56,16-83.58,53.53-112.38,95.69-32.74,47.92-44.5,102.81-54.43,158.61-12.06,67.79-25.48,135.33-37.83,203.07-3,16.6-14.57,24.72-28.57,25.32-38,1.65-76.17,1.7-114.22.53-15.11-.46-22.22-8.78-18.47-26.9Q5485.11,959.9,5569,545.83c4.14-20.44,14.68-28.9,33.06-32.21,6.71-1.21,13.27-3.18,19.9-4.81h60.28c10.86,2.69,21.83,5,32.55,8.18,10.89,3.22,16.68,9.55,13.9,22.35-18.16,83.74-35.45,167.66-54.11,251.29-6.06,27.17-15.39,53.6-23.38,80.88,2.32-.29,3.85,0,4.46-.65,3.06-3.12,5.77-6.58,8.79-9.75,61.79-64.9,134.7-100.21,226.81-88,60.65,8,104.32,45.17,118.68,104.36,2.49,10.26,5.08,20.5,7.61,30.75Q6017.6,936.44,6017.61,964.7Z"/><path class="cls-1" d="M5049.32,1420.58c-10.93-2.32-21.88-4.61-32.8-7-84.44-18.15-136-70.14-146.37-155-16.23-132.71,12.42-256.2,90.65-365.18,77.15-107.48,214.57-150.55,337.93-108,24.7,8.53,46.3,26.23,69,40.3,11.24,7,14.08,18.1,12.94,31-2.62,29.75-9.13,58.27-26.39,83.13-14,20.18-29.09,21.77-46.7,4.89-32.12-30.79-68.07-50.18-114.57-45.68-35.59,3.45-62.4,21.32-84.66,47.23-37.23,43.34-52.74,96.5-62.91,150.86-6.06,32.39-8,65.95-8.07,99-.24,73.07,47.17,109.89,118.11,90.94,27.44-7.33,53.23-21.19,79.34-33,10.75-4.88,19.86-13.36,30.59-18.33,25.73-11.91,43.74.11,43.58,28-.26,43-16.34,76.75-53.06,101.78-41.5,28.28-86.63,44.3-136,50.31-6,.74-11.9,3-17.85,4.61Z"/><path class="cls-1" d="M1151.41,989.37c-7,34.76-14.14,69.48-20.93,104.28-18,92.15-36,184.29-53.56,276.53-3.29,17.32-13.38,28.38-29.56,29.15-39.89,1.91-80,2.87-119.83,1.14-20.32-.89-23.75-9.49-19.75-29.44q68.86-342.46,137.68-684.92c5.92-29.44,13-58.67,17.94-88.26,2.22-13.27,8.87-21,20.7-23.55,44.1-9.54,88.44-8.65,132.5.23,12.17,2.45,16.67,11.15,14,24.26q-32.58,161.08-64.48,322.3c-1.33,6.66-2.24,13.4-3.35,20.1l8,7.07c1.87-5.11,2.48-11.3,5.8-15.16q144.26-167.78,288.85-335.28c14-16.33,31-26.31,51.65-27.17,33.8-1.41,67.79-2,101.53-.06,34.31,2,44.19,23.7,22.28,50.72-30.8,38-64.13,73.93-96.91,110.26q-97.78,108.33-196.42,215.87c-10.52,11.4-12.24,20.29-5.83,34.41q76.86,169.52,152.3,339.69a293.09,293.09,0,0,1,14.6,40.62c5.37,19.3-.62,31-19.75,35.65-45.78,11.07-92.24,10-138,1.1-9.11-1.77-18.93-14.11-23.3-23.88-55.53-124.14-110.11-248.71-165-373.14-2-4.47-4.37-8.76-6.56-13.13Z"/><path class="cls-1" d="M1844.74,893c21.47-25.21,38.48-47.62,58-67.54,27.76-28.27,60.83-48.29,101-54.21,6.17-.91,12.61-1.92,18.7-1.12,71,9.3,66.64,12,57,68.71-4.88,28.8-13.48,57.07-21.89,85.13-4.74,15.84-16.18,21.42-32.4,13.7-45.43-21.6-82.35-6.09-115.58,26.48-49.76,48.77-77,108.61-89.64,176.41-14.57,78.14-30.71,156-45.66,234-3,15.52-12.87,24.5-26.47,25.05-39.27,1.6-78.66,1.78-117.95.59-14.55-.44-20.37-9.63-17-26.34q56.51-276.88,111.34-554.1c4.08-20.62,14.35-31.44,34.8-31.84,25.56-.5,51.14-.31,76.71.08,19.32.29,24.4,11.63,21.41,29C1853.08,840.95,1849.32,864.92,1844.74,893Z"/><path class="cls-1" d="M3673.42,523.41c14.86,1.77,29.9,2.64,44.54,5.51,27,5.28,39.92,19.92,37.92,47.14-1.68,22.81-5.35,46.15-12.64,67.73-13.51,40-48.36,49.7-85.64,51.54-19.21.95-38.81-.55-57.88-3.36-21.76-3.2-32.77-16-34.58-38.12-2.55-31.18,3.71-61.08,17.49-89,14.14-28.71,40.75-37,70-39.71,6.83-.64,13.77-.09,20.66-.09C3673.31,524.47,3673.36,523.94,3673.42,523.41Z"/><path class="cls-1" d="M3390.77,514.11c-8.51-1.83-17.05-3.53-25.58-5.29h-60.28c-3.47,1.35-6.82,3.28-10.41,4-33.7,6.31-34.93,7.64-42.05,40.37q-23.57,108.24-47.45,216.4c-4.87,22.22-9.66,44.46-14.75,67.94-4.36-2.61-6.21-3.25-7.41-4.51-57.35-59.86-127.88-73.29-205.64-55.86-84.75,19-141.74,74.15-183.37,147.44-37.69,66.34-59.62,138.07-67.23,213.59-6,60-6.61,120.3,15.56,178.27,19.47,50.93,53.85,85.26,107.85,98.15q12.7,3,25.41,6h45.21c4.74-1.45,9.39-3.45,14.24-4.28,66.92-11.5,122.2-43.31,166.1-95,5.13-6,9.76-12.48,14.62-18.74,1.85,7,1.19,12.88-.15,18.62-3.84,16.45-8.05,32.82-11.94,49.27-5.89,24.91-2.8,31.36,23,32.88,27.38,1.61,55-.5,82.52-1.65,19.24-.8,27.47-11.86,31.36-30.73q64.73-314.38,130.76-628.5,20.5-98.31,40.86-196.65C3416.1,525.78,3411.16,518.5,3390.77,514.11ZM3158,987.27c-9.85,42.57-17.33,86-31.33,127.23-20.85,61.37-57.65,112.4-114.92,145.92-20.79,12.17-43.15,19.46-68,15.31-29.87-5-40.63-26.91-46.1-52.55-3.24-15.2-3.75-31-5-41.8,3.64-69.9,15.23-133,46.48-190.9,20.14-37.28,46.49-69.51,92-75.86,53.5-7.47,93.08,17.12,123.71,58.81C3157.45,977,3159,983.05,3158,987.27Z"/><path class="cls-1" d="M4740.23,803.57c-35.64-20.15-74.45-28.84-115-31.75C4488.11,762,4379.52,811.37,4305.92,929c-58.35,93.29-79.68,196.42-73.7,305.79,5,91.44,55.1,152.55,144.2,173.65,21.83,5.17,44.19,8.13,66.31,12.1h52.75c7.29-1.54,14.51-3.57,21.87-4.55,44.33-5.92,87.86-14.85,127.48-36.66,45.45-25,62.83-59.55,57-110.6-2.3-20-8.89-23.28-27.16-15.9-27.23,11-54.37,22.88-82.57,30.72-48.81,13.57-98.29,20.51-147.22-1.28-20.35-9.06-38.37-21.48-42.92-44.1-5.89-29.28-8.93-59.17-12.26-88.9-1.67-14.94,6.16-19.51,21.42-20.15,65.06-2.71,130.38-4.28,195-11.69,57.06-6.54,111.24-25.61,156.57-63.32C4846.71,984.21,4835.27,857.31,4740.23,803.57Zm-101.36,188c-20.86,15.3-47.64,24.76-73.18,31-48.2,11.68-97.79,9.45-150.43,8.08,22.85-71.83,57.19-128.59,133.1-143.28,23.49-4.55,50.64-2.11,73.62,5.09C4668.67,907.07,4678.32,962.68,4638.87,991.61Z"/><path class="cls-1" d="M2609.44,804c-36-20.92-75.56-29.36-116.72-32.28-131.57-9.34-237.9,36.4-311.79,147.15-64.6,96.82-87.86,205.69-80.05,320.78,6.22,91.8,56.36,147.83,146.84,169.37,20.6,4.91,41.69,7.77,62.55,11.58H2363c7.92-1.55,15.8-3.48,23.79-4.59,44.88-6.27,89.07-15.22,129-37.88,44.33-25.16,61.73-62.29,53.79-112-2.86-17.95-8.6-20.43-25.63-13.57-27.26,11-54.34,23-82.54,30.89-49.41,13.75-100,22-148.7-2.07-13.94-6.87-29.64-17.56-36.19-30.66-18.51-37.09-22.91-77.44-15.1-121,8.25,0,15.64.37,23-.06,63.76-3.7,127.82-4.86,191.17-12.17,54.49-6.28,106.21-24.63,150.52-59.14C2714.58,989.31,2706.2,860.27,2609.44,804ZM2498.89,999.41c-30.73,20.36-66.17,26.34-101.73,29.37-31.78,2.71-63.85,2.05-95.8,2.63-4.76.09-9.54-1.21-14.37-1.88,17.61-91.13,94.87-164.54,193.42-141.29,24.66,5.81,44.11,19.14,49.19,45.75C2535.07,962.61,2522.18,984,2498.89,999.41Z"/></svg>