<svg id="Layer_1" data-name="Layer 1" xmlns="http://www.w3.org/2000/svg" viewBox="0 0 6039.52 1948.69"><defs><style>.cls-1{fill:#fff;}</style></defs><title>disneyland</title><path class="cls-1" d="M3075.6,975.94l31.91-60.63,165.93-3.19c28.72-3.19,54.25-9.57,73.39-22.34,9.57-9.57,9.57-22.34,3.19-35.1l-31.91-38.29-41.48-22.34L2938.39,816.4c-19.15,0-25.53,3.19-28.72,12.76l6.38,25.53L2928.82,877a108,108,0,0,0,25.53,9.57l31.91,6.38c9.57,0,12.76,6.38,9.57,9.57l-38.29,95.73h-19.15c-9.57-3.19-16,0-22.34,6.38l-6.38,38.29,9.57,44.67c3.19,6.38-3.19,19.15-16,35.1-9.57,16-19.15,44.67-22.34,76.58s-3.19,54.25,6.38,73.39l44.67,57.44c19.15,16,41.48,22.34,76.58,19.15l105.3-25.53,98.92-44.67,47.86-28.72c9.57-9.57,12.76-19.15,9.57-31.91s-12.76-28.72-31.91-41.48l-47.86-3.19-146.78,25.53h-41.48l3.19-31.91,19.15-51.05,16-28.72,38.29-6.38,140.4-6.38c19.15,0,28.72-6.38,31.91-12.76l3.19-35.1-6.38-25.53-146.78-9.57c-19.15-3.19-28.72-9.57-25.53-16Z"/><path class="cls-1" d="M3461.7,969.56l79.77-118.06,6.38-47.86c0-16-6.38-25.53-16-25.53l-41.48,35.1L3366,982.32a263.61,263.61,0,0,0-35.1,76.58c-9.57,31.91-9.57,63.82-6.38,92.54s9.57,51.05,19.15,67l44.67,60.63,19.15,16-60.63,274.42c-6.38,54.25-9.57,111.68-6.38,165.93l25.53,28.72,44.67,28.72,41.48,3.19c3.19-3.19,6.38-22.34,6.38-54.25l12.76-153.16c6.38-70.2,25.53-153.16,51.05-252.08l38.29-9.57c22.34,0,51.05-9.57,83-25.53l67-41.48c28.72-19.15,60.63-51.05,86.15-98.92,25.53-44.67,44.67-105.3,51.05-185.07a335,335,0,0,0-9.57-76.58,164.08,164.08,0,0,0-31.91-67c-16-19.15-28.72-22.34-47.86-12.76-83,44.67-143.59,92.54-181.88,140.4s-67,92.54-83,130.83l-31.91,67c-9.57,9.57-25.53-3.19-38.29-38.29-9.57-25.53-6.38-54.25,3.19-83,9.57-22.34,22.34-47.86,35.1-67Zm312.71-35.1q23.93,0,28.72,19.15c3.19,16,3.19,31.91,0,51.05l-16,47.86c-28.72,47.86-54.25,79.77-76.58,98.92l-47.86,38.29L3634,1202.5l-41.48,9.57c-9.57,3.19-16,0-19.15-6.38l25.53-51.05,121.25-178.69c22.34-22.34,38.29-35.1,54.25-41.48Z"/><path class="cls-1" d="M3956.29,790.87c3.19,19.15,3.19,44.67-3.19,76.58l-95.73,290.37c-16,51.05-19.15,92.54-6.38,130.83,9.57,35.1,31.91,57.44,63.82,70.2,38.29,16,73.39,22.34,98.92,22.34,28.72,0,51.05-6.38,70.2-12.76l41.48-25.53,41.48-41.48,19.15-47.86c0-16-3.19-25.53-9.57-31.91h-60.63l-60.63,19.15-35.1,6.38-31.91-3.19c-6.38-3.19-9.57-16-6.38-38.29l57.44-204.22c9.57-47.86,16-89.35,9.57-134,0-16-9.57-31.91-22.34-54.25L3985,765.34l-31.91-3.19,3.19,28.72Z"/><path class="cls-1" d="M4597.65,857.88c-22.34-38.29-47.86-67-79.77-86.15-9.57-9.57-25.53-16-47.86-12.76L4406.2,781.3l-44.67,31.91c-41.48,60.63-67,111.68-83,159.54l-22.34,86.15h-19.15c-9.57-9.57-19.15-16-28.72-16l-12.76,3.19v22.34l19.15,83,6.38,9.57,6.38,6.38-9.57,102.11c0,22.34,9.57,44.67,25.53,67,16,19.15,38.29,31.91,63.82,28.72,9.57-3.19,16-16,16-35.1l-3.19-70.2c0-19.15,3.19-31.91,6.38-47.86,3.19-12.76,6.38-22.34,9.57-22.34L4543.41,1161v156.35c3.19,25.53,6.38,38.29,12.76,41.48l41.48,6.38,54.25-41.48c16-19.15,25.53-47.86,25.53-83V1138.68l-9.57-79.77-25.53-86.15-44.67-114.87Zm-197.84,54.25c12.76-25.53,25.53-38.29,41.48-44.67,19.15-6.38,31.91,3.19,44.67,28.72l31.91,86.15,16,79.77-185.07,9.57c0-25.53,6.38-51.05,16-83l35.1-76.58Z"/><path class="cls-1" d="M4830.59,867.45a56.6,56.6,0,0,0-25.53,31.91l-60.63,229.74c-9.57,54.25-19.15,111.68-19.15,162.74,3.19,28.72,19.15,44.67,51.05,47.86,16,0,22.34-6.38,28.72-16l6.38-28.72,22.34-137.21c6.38-31.91,16-60.63,22.34-86.15,6.38-22.34,16-35.1,22.34-38.29l19.15,31.91,89.35,207.41,44.67,51.05c16,9.57,35.1,16,54.25,9.57l31.91-19.15c16-9.57,31.91-28.72,44.67-60.63,16-28.72,22.34-76.58,28.72-137.21,3.19-67-3.19-124.44-16-169.12-9.57-44.67-25.53-83-38.29-105.3L5105,797.25c-9.57-12.76-22.34-22.34-38.29-25.53-9.57,0-19.15,3.19-22.34,16-3.19,6.38,0,22.34,6.38,41.48l25.53,194.64-3.19,114.87-9.57,3.19c-6.38,0-19.15-19.15-35.1-47.86L4913.55,886.6c-19.15-28.72-35.1-41.48-51.05-41.48l-31.91,22.34Z"/><path class="cls-1" d="M5219.88,864.26c-6.38,12.76-9.57,25.53-6.38,35.1q4.79,23.93,19.15,28.72h19.15l6.38-6.38v-16c-3.19-6.38,0-16,6.38-22.34,6.38-3.19,19.15-9.57,28.72-9.57l92.54,9.57c31.91,9.57,60.63,25.53,86.15,38.29l54.25,35.1c44.67,31.91,73.39,63.82,95.73,98.92,22.34,31.91,38.29,67,41.48,92.54,3.19,28.72,3.19,47.86-3.19,63.82s-22.34,22.34-44.67,31.91l-83,9.57-92.54-9.57,3.19-252.08c0-9.57-3.19-19.15-9.57-25.53L5401.76,960c-12.76,6.38-22.34,19.15-31.91,41.48-6.38,19.15-16,44.67-19.15,73.39l-16,108.49c-3.19,3.19-6.38,3.19-16-6.38l-22.34-25.53c-6.38-6.38-12.76-9.57-25.53-6.38-9.57,0-16,6.38-19.15,16l-6.38,25.53c-6.38,16-6.38,31.91-3.19,51.05s12.76,38.29,28.72,57.44l60.63,41.48c3.19,22.34,9.57,44.67,19.15,60.63,9.57,19.15,22.34,25.53,44.67,22.34l38.29-6.38c9.57-3.19,19.15-19.15,22.34-41.48l134-19.15c41.48-16,70.2-31.91,89.35-47.86a326.89,326.89,0,0,0,86.15-114.87c12.76-35.1,19.15-70.2,12.76-98.92s-16-54.25-28.72-76.58a452.23,452.23,0,0,0-105.3-114.87c-44.67-28.72-89.35-51.05-134-63.82L5382.61,810l-89.35,9.57c-38.29,16-63.82,31.91-73.39,44.67Z"/><path class="cls-1" d="M5979.31,1218.45c-16-16-38.29-22.34-60.63-22.34s-44.67,6.38-60.63,22.34c-19.15,16-25.53,38.29-25.53,60.63,0,25.53,6.38,44.67,25.53,60.63,16,16,38.29,25.53,60.63,25.53s44.67-9.57,60.63-25.53c19.15-16,25.53-35.1,25.53-60.63s-6.38-47.86-25.53-60.63Zm-60.63-12.76c19.15,0,38.29,6.38,51.05,22.34,12.76,12.76,19.15,28.72,22.34,51.05-3.19,22.34-9.57,41.48-22.34,54.25s-28.72,19.15-51.05,22.34c-22.34-3.19-38.29-6.38-47.86-22.34-16-12.76-22.34-28.72-22.34-51.05,0-19.15,6.38-38.29,19.15-51.05,16-19.15,31.91-25.53,51.05-25.53Z"/><path class="cls-1" d="M5960.17,1256.74c0-19.15-9.57-28.72-31.91-28.72h-41.48v98.92h16v-44.67h16l28.72,44.67h16l-28.72-44.67c12.76,3.19,25.53-9.57,25.53-25.53ZM5937.83,1244l6.38,12.76-6.38,12.76-35.1,3.19v-31.91h22.34l12.76,3.19Z"/><path class="cls-1" d="M5676.18,1521.58c-28.72,0-54.25,6.38-73.39,16s-25.53,25.53-25.53,44.67c0,16,6.38,28.72,19.15,41.48l25.53,16,60.63,19.15c25.53,6.38,38.29,16,38.29,22.34,0,12.76-12.76,19.15-41.48,22.34l-51.05-9.57-19.15-6.38-22.34-9.57v44.67l22.34,9.57,70.2,9.57c31.91,0,57.44-6.38,76.58-16s28.72-28.72,28.72-47.86c3.19-31.91-22.34-54.25-73.39-67l-22.34-6.38c-28.72-9.57-44.67-19.15-44.67-25.53,3.19-9.57,16-16,41.48-19.15l83,19.15,3.19,3.19v-44.67c-38.29-12.76-67-16-95.73-16Z"/><polygon class="cls-1" points="5235.83 1521.59 5235.83 1735.38 5306.03 1735.38 5306.03 1521.59 5235.83 1521.59"/><path class="cls-1" d="M4486,1735.37l-118.06-213.79h-76.58l-108.49,213.79H4253l19.15-41.48h118.06l22.34,41.48Zm-156.35-162.74,41.48,83h-83l41.48-83Z"/><path class="cls-1" d="M4897.6,1531.16l-25.53-6.38-146.78-3.19v213.79h67v-86.15H4821c16,6.38,25.53,16,38.29,31.91l28.72,54.25h73.39l-35.1-60.63c-9.57-22.34-25.53-35.1-38.29-41.48l22.34-9.57c16-9.57,22.34-22.34,25.53-41.48-3.19-19.15-16-38.29-38.29-51.05Zm-105.3,31.91h31.91c25.53,0,38.29,6.38,38.29,22.34s-9.57,22.34-28.72,25.53H4792.3v-47.86Z"/><path class="cls-1" d="M3940.33,1531.16l-22.34-6.38-143.59-3.19v213.79h67v-83l76.58-3.19,25.53-6.38c25.53-12.76,38.29-31.91,38.29-54.25-3.19-25.53-16-44.67-41.48-57.44Zm-102.11,31.91h25.53c31.91,0,51.05,6.38,47.86,22.34,0,19.15-16,28.72-51.05,25.53h-22.34v-47.86Z"/><path class="cls-1" d="M392.06,152.69l-194.64,16c-47.86,6.38-76.58,16-92.54,25.53L60.2,235.65,34.68,280.33c3.19,19.15,9.57,35.1,28.72,38.29L108.07,325l38.29-6.38c9.57,0,16-6.38,16-16l-6.38-16-16-6.38-28.72,3.19c-12.76,3.19-22.34-3.19-22.34-12.76,0-6.38,12.76-12.76,35.1-19.15l197.84-16C481.4,238.85,628.18,261.18,762.2,309c137.21,44.67,255.27,105.3,360.57,181.88,102.11,73.39,181.88,153.16,239.32,232.94s86.15,156.35,86.15,226.55c0,54.25-16,108.49-47.86,156.35s-79.77,86.15-140.4,114.87c-63.82,28.72-140.4,44.67-236.13,47.86-89.35-3.19-175.5-12.76-258.46-31.91l-3.19-351,185.07,9.57,127.64,25.53q52.65,14.36,57.44,38.29c-3.19,22.34-9.57,35.1-25.53,44.67L1065.33,1027c-6.38,3.19-6.38,6.38-3.19,9.57l12.76,9.57,41.48,9.57c16,0,31.91-6.38,51.05-16s31.91-22.34,47.86-41.48c16-16,19.15-35.1,19.15-54.25,0-28.72-12.76-60.63-41.48-86.15-28.72-28.72-70.2-51.05-130.83-70.2S928.13,759,842,759l-79.77,3.19,3.19-114.87c0-28.72-3.19-60.63-12.76-86.15-9.57-28.72-19.15-47.86-28.72-60.63-9.57-9.57-19.15-16-25.53-16-9.57,0-19.15,9.57-25.53,25.53L644.14,669.62l-3.19,108.49L468.64,816.4c-54.25,16-102.11,35.1-137.21,57.44-35.1,25.53-57.44,51.05-57.44,83s16,70.2,47.86,108.49,76.58,76.58,130.83,114.87,114.87,70.2,181.88,102.11l3.19,51.05c0,19.15,3.19,38.29,12.76,57.44,6.38,22.34,28.72,31.91,63.82,31.91,22.34,0,38.29-9.57,47.86-25.53a110.19,110.19,0,0,0,16-57.44c86.15,25.53,165.93,41.48,245.7,41.48,95.73,0,188.26-19.15,274.42-51.05,86.15-35.1,159.54-83,213.79-150,57.44-63.82,89.35-140.4,89.35-226.55,0-89.35-38.29-178.69-108.49-274.42-67-92.54-162.74-178.69-277.61-255.27-114.87-79.77-245.7-140.4-386.1-191.45-146.78-54.25-290.37-79.77-437.15-79.77ZM312.28,950.41c3.19-12.76,19.15-25.53,47.86-35.1l118.06-19.15,153.16-6.38L625,1189.73c-92.54-35.1-169.12-76.58-226.55-121.25-57.44-47.86-83-86.15-86.15-118.06Z"/><path class="cls-1" d="M1662,331.38c-44.67,28.72-83,70.2-111.68,118.06-9.57,25.53-16,51.05-12.76,86.15,3.19,31.91,16,57.44,38.29,79.77-9.57,16-12.76,28.72-9.57,47.86l12.76,35.1q19.15,4.79,28.72,0l16-22.34,22.34-22.34c76.58,22.34,146.78,16,213.79-16l105.3-70.2c35.1-28.72,63.82-57.44,83-86.15s25.53-57.44,16-83c-16-25.53-28.72-41.48-44.67-51.05l-44.67-9.57H1952.4q-23.93-81.37-143.59-67c-51.05,9.57-98.92,28.72-146.78,60.63Zm-67,178.69c-3.19-9.57,3.19-25.53,16-44.67L1662,417.54a480.94,480.94,0,0,1,63.82-38.29l44.67,3.19-76.58,63.82-83,89.35c-6.38-3.19-12.76-12.76-16-25.53Zm284,47.86-44.67,16-76.58,12.76c-25.53,3.19-51.05,0-73.39-9.57l89.35-92.54c31.91-35.1,67-60.63,105.3-83h98.92q28.72,19.15,19.15,47.86c-6.38,22.34-19.15,38.29-35.1,54.25s-31.91,25.53-47.86,31.91L1879,557.93Z"/><path class="cls-1" d="M1700.32,768.53l-19.15,22.34-25.53,229.74c-3.19,83-3.19,165.93,3.19,248.89l12.76,22.34,35.1,12.76,31.91-3.19c16-6.38,25.53-19.15,28.72-28.72l3.19-16-12.76-414.82c-6.38-31.91-16-51.05-25.53-63.82-9.57-9.57-22.34-12.76-31.91-9.57Z"/><path class="cls-1" d="M1968.36,931.27q-33.5-9.57-38.29-19.15c0-3.19,3.19-9.57,12.76-16l76.58-16,290.37-19.15,35.1-9.57,31.91-19.15c9.57-6.38,9.57-22.34,6.38-38.29-3.19-6.38-16-16-35.1-19.15l-207.41-12.76-108.49,6.38c-38.29,3.19-73.39,12.76-105.3,25.53-31.91,16-57.44,31.91-73.39,57.44l-22.34,54.25c-3.19,19.15,3.19,44.67,22.34,70.2q33.5,23.93,95.73,28.72l121.25,3.19c41.48,0,83,9.57,121.25,25.53l47.86,16,44.67,25.53c9.57,9.57,12.76,22.34,6.38,41.48-9.57,16-31.91,31.91-70.2,44.67l-134,25.53L1942.83,1177l-28.72-19.15c-6.38-6.38-9.57-19.15-6.38-35.1,16-25.53,31.91-31.91,54.25-28.72,22.34,0,41.48,9.57,63.82,19.15l51.05,25.53,63.82,3.19,63.82-19.15c19.15-6.38,25.53-16,25.53-22.34-6.38-9.57-25.53-22.34-60.63-38.29q-52.65-19.15-114.87-28.72l-114.87,12.76c-38.29,9.57-63.82,22.34-73.39,41.48s-16,38.29-16,60.63c3.19,38.29,16,63.82,44.67,86.15,25.53,25.53,54.25,41.48,86.15,51.05l86.15,19.15,108.49-3.19c38.29-3.19,73.39-16,105.3-28.72,28.72-12.76,51.05-28.72,63.82-51.05,16-25.53,22.34-57.44,22.34-86.15,3.19-31.91,0-60.63-6.38-79.77-16-28.72-44.67-54.25-76.58-70.2L2172.58,956.8l-204.22-25.53Z"/><path class="cls-1" d="M2609.73,928.08,2530,822.78c-16-12.76-31.91-16-44.67-9.57-19.15,9.57-28.72,35.1-41.48,70.2l-31.91,255.27-3.19,108.49c0,22.34,3.19,38.29,9.57,44.67,19.15,16,31.91,22.34,44.67,16l25.53-19.15c6.38-3.19,6.38-22.34,9.57-51.05l9.57-207.41c3.19-28.72,6.38-44.67,12.76-47.86,9.57,0,22.34,12.76,31.91,38.29l86.15,185.07c19.15,28.72,38.29,51.05,60.63,67,16,9.57,31.91,12.76,51.05,9.57,19.15,0,38.29-16,60.63-44.67,28.72-44.67,44.67-89.35,47.86-140.4,0-47.86-3.19-92.54-9.57-130.83L2826.71,877c-6.38-31.91-22.34-60.63-41.48-92.54l-60.63-70.2c-19.15-16-35.1-22.34-41.48-16-9.57,6.38-9.57,22.34-3.19,47.86l28.72,89.35c9.57,35.1,22.34,73.39,25.53,118.06l9.57,137.21q0,33.5-9.57,38.29l-38.29-41.48-86.15-159.54Z"/></svg>