<svg xmlns="http://www.w3.org/2000/svg" viewBox="0 0 6039.52 1948.69"><defs><style>.cls-1{fill:#fff;}</style></defs><title>888</title><g id="Capa_2" data-name="Capa 2"><path class="cls-1" d="M3297.06,1142.08c118.56-55.6,194.92-140.66,194.92-235.78,0-168.13-237.79-304.77-531.17-304.77s-531.17,136.64-531.17,304.77c0,95.11,75.69,180.18,194.92,235.78C2502,1190.31,2412.23,1264,2379.41,1350.4c-32.82-86.41-122.58-160.09-245.15-208.31,119.23-55.6,194.92-140.66,194.92-235.78,0-168.13-237.79-304.77-531.17-304.77s-531.17,136.64-531.17,304.77c0,95.11,75.69,180.18,194.92,235.78-122.58,48.23-212.33,121.91-245.15,208.31C1183.78,1264,1094,1190.31,971.44,1142.08c119.23-55.6,194.92-140.66,194.92-235.78,0-168.13-237.79-304.77-531.17-304.77-294.05,0-531.84,136-531.84,304.77,0,95.11,75.69,180.18,194.92,235.78C141.53,1203.71,39,1306.86,39,1424.08c0,188.89,266.59,341.61,595.47,341.61,284.67,0,523.13-114.54,581.41-267.93,58.94,153.39,296.73,267.93,581.41,267.93s523.13-114.54,581.41-267.93c58.94,153.39,296.73,267.93,581.41,267.93,328.88,0,595.47-152.72,595.47-341.61C3555.62,1306.86,3453.13,1203.71,3297.06,1142.08ZM634.52,752.92C764.47,752.92,869,821.24,869,905.64S763.8,1058.36,634.52,1058.36,400.08,990,400.08,905.64,504.58,752.92,634.52,752.92Zm0,829.91c-143.34,0-259.89-75.69-259.89-169.47S491.18,1243.9,634.52,1243.9s259.89,75.69,259.89,169.47S777.86,1582.83,634.52,1582.83ZM1797.33,752.92c129.95,0,234.44,68.32,234.44,152.72s-105.16,152.72-234.44,152.72c-129.95,0-234.44-68.32-234.44-152.72S1668.06,752.92,1797.33,752.92Zm0,829.91c-143.34,0-259.89-75.69-259.89-169.47S1654,1243.9,1797.33,1243.9s259.89,75.69,259.89,169.47S1941.34,1582.83,1797.33,1582.83ZM2960.81,752.92c129.95,0,234.44,68.32,234.44,152.72s-105.16,152.72-234.44,152.72c-129.95,0-234.44-68.32-234.44-152.72S2830.87,752.92,2960.81,752.92Zm0,829.91c-143.34,0-259.89-75.69-259.89-169.47s116.55-169.47,259.89-169.47,259.89,75.69,259.89,169.47S3104.16,1582.83,2960.81,1582.83Z"/><circle class="cls-1" cx="3604.51" cy="1651.15" r="81.72"/><path class="cls-1" d="M3703,1524.55c0,113.2,144.68,209,347.64,209,60.28,0,116.55-7.37,169.46-24.11V1600.91c-34.83,22.77-84.4,37.51-137.31,37.51-112.53,0-180.85-51.58-180.85-113.2,0-57.6,63-117.22,174.15-117.22,60.28,0,102.48,14.74,144.68,38.85V1338.34c-47.56-16.75-105.16-24.78-160.09-24.78C3853,1312.89,3703,1407.33,3703,1524.55Z"/><path class="cls-1" d="M4609.25,1312.89c-214.34,0-361.7,87.75-361.7,211,0,122.58,146,210.32,361.7,210.32s361.7-87.75,361.7-210.32C4970.95,1400.64,4823.59,1312.89,4609.25,1312.89Zm0,321.51c-101.14,0-162.77-56.93-162.77-110.52,0-54.93,61.62-111.19,162.77-111.19S4772,1469,4772,1523.88C4772,1576.8,4710.39,1634.4,4609.25,1634.4Z"/><path class="cls-1" d="M5782.1,1312.89c-79.71,0-158.75,23.44-200.28,61.62-44.88-41.53-112.53-61.62-197.6-61.62-63,0-130.62,16.75-168.13,48.23h-2.68v-35.5h-197.6v395.2h196.26V1527.23c0-41.53-5.36-123.92,103.82-123.92,102.48,0,93.78,79,93.78,117.22v200.28h196.26V1527.23c0-40.86-1.34-123.92,105.16-123.92,96.45,0,92.44,71.67,92.44,110.52v207.64h196.93V1475C6000.47,1388.58,5956.93,1312.89,5782.1,1312.89Z"/><path class="cls-1" d="M4506.76,743.54c-40.86-22.1-166.12-88.42-190.9-100.47a187,187,0,0,0-71-18.76c-20.76-1.34-191.57-26.79-234.44-32.82,4-18.09,10-44.21,15.41-70.33,10.72-51.58,2.68-84.4-32.82-111.86-34.83-28.13-215.68-186.21-239.13-206.31s-36.84-30.14-79-5.36-290,170.13-318.84,186.88c-21.43,12.06-28.8,31.48-10.72,65.64,17.42,34.16,76.36,152.72,91.1,182.19,14.74,30.14,23.44,35.5,43.54,58.27C3500,714.07,3638,870.14,3654.08,889.56c16.08,18.76,40.86,35.5,69.66,12.06,20.09-16.08,138-113.87,207-170.8-22.1,71.67-48.23,158.08-56.27,184.87-12.06,40.86-4,61.62,14.74,91.1,14.74,23.44,77.7,117.22,106.5,158.08s50.24,46.22,92.44,44.88,229.08-4,290-4,59.61-17.42,75-52.92c14.74-35.5,84.4-275.3,99.13-322.85C4568.39,781.72,4547.62,765,4506.76,743.54ZM4271,637c23.44,4.69,42.87,13.4,42.87,19.42s-19.43,8-42.87,3.35-42.87-13.4-42.87-19.42S4247.54,632.35,4271,637Zm-27.46,26.12c28.13,5.36,50.91,16.08,50.91,23.44s-22.77,9.38-50.91,4-50.91-16.08-50.91-23.44C4191.95,659.14,4214.72,657.8,4243.52,663.16Zm-235.11-148.7c8.71,9.38-3.35,33.49-26.79,53.59s-48.9,28.13-56.93,18.09c-8.71-9.38,3.35-33.49,26.79-53.59C3974.25,512.45,3999.71,504.41,4008.42,514.46Zm-91.1-117.89c36.84,0,67,24.78,67,54.93s-30.14,54.93-67,54.93-67-24.78-67-54.93C3850.34,420.69,3880.48,396.57,3917.32,396.57ZM3709.67,207.68c33.49,0,61,22.77,61,50.24s-27.46,50.24-61,50.24-61-22.77-61-50.24C3648.72,229.79,3676.18,207.68,3709.67,207.68Zm-26.79,170.13c36.84,0,67,24.78,67,54.93s-30.14,54.93-67,54.93-67-24.78-67-54.93S3646,377.82,3682.88,377.82Zm-234.44-18.09c36.84,0,67,24.78,67,54.93s-30.14,54.93-67,54.93-67-24.78-67-54.93C3381.46,383.85,3411.6,359.73,3448.44,359.73Zm2.68,220.37c-4.69,3.35-26.79-22.77-46.22-50.24s-37.51-56.27-32.82-59.61S3399.55,495,3419,522.5C3439.07,549.29,3455.81,576.75,3451.12,580.1Zm107.17,151.38c-4.69,3.35-27.46-22.1-47.56-48.9s-38.85-54.93-34.16-58.27,28.13,24.11,48.23,50.91C3545.57,701.34,3563,728.13,3558.29,731.48Zm100.47-161.43c41.53,0,75.69,27.46,75.69,62.29,0,34.16-33.49,62.29-75.69,62.29-41.53,0-75.69-27.46-75.69-62.29C3583.75,597.52,3617.24,570.06,3658.77,570.06Zm2,302.09c-4.69,3.35-23.44-16.75-43.54-43.54s-34.83-48.9-30.14-52.25,22.1,17.42,42.87,43.54C3650.06,846.69,3665.47,868.8,3660.78,872.15Zm11.39-82.39c-10-12.06,4-42.2,31.48-67.65,27.46-24.78,58.27-35.5,68.32-23.44s-4,42.2-31.48,67.65S3682.21,801.81,3672.16,789.76Zm106.5,24.11c-2,10-20.09,36.84-42.2,54.26s-44.21,23.44-42.2,13.4,21.43-32.82,42.87-50.24C3759.24,813.2,3780.68,803.82,3778.67,813.87Zm105.83-88.42c-2,10.72-21.43,34.83-42.87,53.59-22.1,19.42-38.18,26.12-35.5,16.08,2-10.72,21.43-34.83,42.87-53.59C3870.43,722.11,3886.51,715.41,3884.5,725.46Zm-16.75-59.61c-27.46,24.11-56.93,33.49-67,22.1s4-40.19,31.48-64.3,56.93-33.49,67-22.1C3909.28,613.59,3895.22,642.4,3867.75,665.84Zm75,271.28c-4,30.14-20.09,54.93-36.17,54.93s-26.12-24.78-22.1-54.93,20.09-54.93,36.17-54.93C3936.74,881.52,3946.79,906.31,3942.77,937.12Zm-2-237.12c-18.75,13.4-31.48,17.42-29.47,8,2-10,20.76-32.15,42.2-49.57C3949.47,669.86,3945.45,684.6,3940.76,700Zm20.09-15.41c4-30.14,20.09-54.93,36.17-54.93s26.12,24.78,22.1,54.93S3999,739.52,3983,739.52,3956.84,714.74,3960.86,684.6Zm83.73,395.2c-4,33.49-22.1,60.28-39.52,60.28s-28.13-26.79-24.11-60.28,22.1-60.28,39.52-60.28S4049.27,1046.3,4044.59,1079.79Zm77-286.68c-4,33.49-22.1,60.28-39.52,60.28S4054,826.6,4058,793.11s22.1-60.28,39.52-60.28C4115.59,732.82,4126.3,760.29,4121.62,793.11Zm-38.85-161.43c-24.11-5.36-44.21-14.74-44.21-21.43s20.09-8.71,44.21-3.35S4127,621.63,4127,628.33,4106.88,637,4082.77,631.68Zm122.58,97.12c-33.49-7.37-60.28-20.76-60.28-29.47s27.46-10,61-2.68,60.28,20.76,60.28,29.47C4265.63,735.5,4238.83,736.17,4205.34,728.8Zm163.44,252.52c-10,36.17-44.88,65.64-78.37,65.64s-52.92-29.47-42.87-65.64,44.88-65.64,78.37-65.64C4358.73,915,4378.16,945.16,4368.78,981.33ZM4419,747.56c-31.48-6-57.6-18.76-57.6-27.46s26.12-10.72,57.6-4c31.48,6,57.6,18.76,57.6,27.46S4451.17,754.26,4419,747.56Z"/></g></svg>