<svg xmlns="http://www.w3.org/2000/svg" viewBox="0 0 6039.52 1948.69"><defs><style>.cls-1{fill:#fff;}</style></defs><title>trivago</title><g id="Ebene_1" data-name="Ebene 1"><polygon class="cls-1" points="1915.84 489.56 2215.95 489.56 2443.85 1100.82 2447.54 1100.82 2658.74 489.56 2938.22 489.56 2582.61 1389.88 2288.15 1389.88 1915.84 489.56"/><path class="cls-1" d="M825.92,711.81H557v300.11c0,24.8,1.23,47.15,4.18,67.54,2.7,20.38,8.84,37.82,18.42,52.8,9.58,14.74,24.07,26.28,43.71,34.14,19.65,8.1,45.92,12,78.59,12,16.21,0,37.57-1.47,64.1-4.67s46.42-10.31,60.17-21.37V1384a518.55,518.55,0,0,1-106.09,22.35A1080.29,1080.29,0,0,1,612,1412c-51.82,0-99.22-4.91-142.69-14.74s-81.54-25.54-114.2-47.15a227,227,0,0,1-76.38-84.24q-27.63-51.94-27.51-126V711.81H55.76V489.56H251.25V222.85H557V489.56H825.92Z"/><path class="cls-1" d="M904.26,489.56H1182V634h3.68q44.57-83.25,105.6-125T1445,467.21c16,0,32.17.74,48.14,2a239.86,239.86,0,0,1,44.45,7.37V730.23a401.72,401.72,0,0,0-58.45-13.75,366.62,366.62,0,0,0-60.17-4.67q-79.57,0-126,22.35c-30.94,14.74-54.52,35.61-71.22,62.13s-27.51,58.45-32.42,95.29q-7.37,55.63-7.37,122.3v376H904.26Z"/><path class="cls-1" d="M1603,489.56h277.76v900.33H1603Zm-8.84-239.94c0-40.77,14.49-75.4,43.22-104.37,29-29,63.61-43.22,104.37-43.22s75.64,14.49,104.37,43.22,43.22,63.61,43.22,104.37S1874.83,325,1846.09,354s-63.61,43.22-104.37,43.22-75.4-14.49-104.37-43.22c-28.73-29-43.22-63.85-43.22-104.37"/><path class="cls-1" d="M3409.75,995.22c-20.87,0-47.15,1-78.83,2.7a406.81,406.81,0,0,0-90.62,15.72c-29,8.6-53.78,21.61-74.17,38.8-20.38,17.44-30.45,41.26-30.45,72.2,0,33.4,14.24,58,42.73,74.17,28.24,16,58,24.07,88.9,24.07a280.47,280.47,0,0,0,78.83-11.05c25.3-7.37,47.89-17.93,67.54-31.44a152.36,152.36,0,0,0,47.4-51.82c11.79-20.87,17.44-45.68,17.44-74.17V995.22h-68.76Zm68.52,281.69h-3.68q-46.42,72.2-123,103.64c-51.33,21.12-105.36,31.44-162.09,31.44a415.46,415.46,0,0,1-121.32-17.68c-38.8-11.79-73.19-29.23-102.66-52.8-29.72-23.58-53-52.56-70.48-87.18s-26-74.66-26-120.34q0-77.73,28.73-131.64c19.16-35.86,44.94-65.57,77.85-88.9q49-35.36,112-54.52a807.25,807.25,0,0,1,130.65-28.73,1251,1251,0,0,1,135.32-11.05c44.94-1.23,86.69-2,125-2,0-49.36-17.44-88.66-52.8-117.64q-52.68-43.47-125-43.47-68.52,0-125,28.73t-100.94,78.83l-148.09-152c51.82-48.14,112.48-84.24,181.49-108.3a649.31,649.31,0,0,1,214.89-36.1c81.54,0,148.34,10.07,200.89,30.45s94.55,50.35,126,89.89,53.54,87.92,65.82,145.39,18.66,123.78,18.66,199.17v457.78H3478.27Z"/><path class="cls-1" d="M5027.19,939.72q0,101.67,52.8,164.79,53,63,148.33,62.87c63.61,0,113.22-20.87,148.33-62.87s52.8-97,52.8-164.79-17.68-122.79-52.8-164.79-84.48-63.12-148.33-63.12c-63.61,0-113.22,21.12-148.33,63.12-35.36,42-52.8,97-52.8,164.79m-251.48,0q0-107.57,35.12-194.51c23.58-58,55.5-107.57,96.52-149.07,40.77-41.5,88.66-73.19,144.16-95.53q82.89-33.52,176.82-33.4t176.82,33.4c55.26,22.35,103.39,54,144.16,95.53,40.77,41.26,72.94,91.11,96.27,149.07q35.37,87.31,35.36,194.51,0,107.57-35.36,194.51c-23.33,58-55.5,107.81-96.27,149.07s-88.9,73.19-144.16,95.29q-82.89,33.52-176.82,33.4t-176.82-33.4c-55.26-22.1-103.39-54-144.16-95.29s-72.94-91.11-96.52-149.07q-35-86.94-35.12-194.51"/><path class="cls-1" d="M5839.35,728.51a117.39,117.39,0,1,1,117.39-117.39,117.39,117.39,0,0,1-117.39,117.39m0-261.55a144.28,144.28,0,0,0,0,288.57c79.57,0,144.41-64.59,144.41-144.16,0-79.82-64.83-144.41-144.41-144.41"/><path class="cls-1" d="M5858.26,582.39a21.47,21.47,0,0,0-2-9.09,15.62,15.62,0,0,0-6.63-5.89,23.14,23.14,0,0,0-7.37-1.72c-2.7-.25-5.89-.25-10.07-.25h-11.79v37.33h10.07a61.65,61.65,0,0,0,12.53-1,18.34,18.34,0,0,0,8.6-3.68,16.5,16.5,0,0,0,4.91-6.14c1.23-2.46,1.72-5.65,1.72-9.58m56.24,96.52h-42.73L5833,627.82h-12.53V678.9h-34.87V539.66h56a120.62,120.62,0,0,1,20.14,1.47,40.82,40.82,0,0,1,16,6.14,36.78,36.78,0,0,1,11.79,12c2.95,4.91,4.42,11.05,4.42,18.66,0,10.56-2.46,19.16-7.12,26a55.61,55.61,0,0,1-19.16,16Z"/><path class="cls-1" d="M4476.09,493V613.33h0c-1.72-2.46-21.37-28.73-40-45.43-18.42-16.7-40.77-29-66.8-42.73-25.79-13.75-55.26-24.31-87.92-32.91s-68.76-12.77-108.3-12.77c-64.1,0-121.57,13.51-172.16,40s-95.78,59.68-128.69,104.62c-32.66,44.7-50.1,91.11-65.57,148.83-15.72,57.71-19.4,116.16-19.4,175.35A703.13,703.13,0,0,0,3814,1138.89c16.7,58.45,36.35,102.41,69.5,143.67,35.61,44.21,85.46,73.19,139.74,96s114.94,33.89,181.49,33.89c42,0,86.69-10.07,134.34-28,47.4-17.68,94.55-50.35,105.11-93.57h0v90.87c0,64.34-11.05,116.9-51.33,158.4-40,41.26-97.25,63.61-182.47,63.61-56.73,0-91.6,1.23-149.56-14.49-50.1-13.51-113-37.57-159.88-71.71l-134.58,197.7c71.71,52.06,136.79,84,214.64,104.62,77.11,20.38,156.19,26.77,236.5,26.77,175.35,0,300.85-44.21,386.56-132.37s122.06-217.59,122.06-388V493Zm-65.57,611.51q-52.68,63-148.34,62.87c-63.61,0-113.22-20.87-148.34-62.87s-52.8-97-52.8-164.79,17.68-122.79,52.8-164.79q53-63,148.34-63.12t148.34,63.12q52.68,63,52.8,164.79C4463.32,1007.75,4445.64,1062.51,4410.52,1104.51Z"/></g></svg>