<svg id="Layer_1" data-name="Layer 1" xmlns="http://www.w3.org/2000/svg" viewBox="0 0 1984.58 1948.69"><defs><style>.cls-1{fill:#fff;}</style></defs><title>orange</title><path class="cls-1" d="M694.68,1674.11c0,17.53,11,33.89,30.89,33.89,21.53,0,42.52-8.9,63.5-27.44v-61.68C725,1626.78,694.68,1643.32,694.68,1674.11Z"/><path class="cls-1" d="M1312.82,1534.06c-24.62,0-52.15,18-52.15,76.68,0,32.06,2.28,85.4,52.6,84.94,52-.35,56.42-53.33,56.42-87.75C1369.69,1567,1349.79,1534.06,1312.82,1534.06Z"/><path class="cls-1" d="M1598.37,1531.56c-31,0-50.33,20.07-53.06,55.33h105.57C1650.88,1552.1,1630.89,1531.56,1598.37,1531.56Z"/><path class="cls-1" d="M56.47,38.52V1910.17H1928.12V38.52ZM286.83,1759.24c-67.78,0-128.91-43.16-128.91-137.46s61.14-137.45,128.91-137.45,128.82,43.14,128.82,137.45S354.6,1759.24,286.83,1759.24Zm321.74-208.63h-3.36c-29.8,0-62.41,4.64-73,27.8v173.24H462.66V1491.2h65.23v30.61c12.45-16.53,43.06-36,71.77-36a73.72,73.72,0,0,1,8.9.36Zm249,201.18H796.8L790.71,1729a153.45,153.45,0,0,1-86.12,25.89c-48.6,0-77.41-32.34-77.41-75.76,0-58.32,53.6-89.12,164.07-101.57V1563c0-18.9-14.35-30-40.88-30s-48.06,10.54-63.59,30l-46.24-26.35q36.38-51,110.92-51c68,0,106.11,29.44,106.11,77.32C857.58,1563,857.49,1751.33,857.58,1751.79Zm287.92-.36h-68.59V1582c0-31.9-8.26-46.25-33.07-46.25-20.44,0-40.88,9.26-64.23,28.89v186.79H911.75V1498.14l56.78-7.81,6.27,30.88c32-23.44,57.42-35.88,89.4-35.88,53.6,0,81.3,28.43,81.3,84.76v181.34Zm290.05-14.51c0,43.43-3.44,115.29-127.45,115.92-51.24.36-98.75-20.17-108.2-64.86l67.6-10.9c2.81,12.8,10.72,25.52,49.06,25.52,35.52,0,52.6-17,52.6-57.68v-30.34l-.91-.91c-10.9,19.53-27.44,38-67.23,38-60.78,0-108.56-42.15-108.56-130.19,0-87.13,49.33-135.91,104.65-136,50-.09,69.64,21.76,75.12,34.52l5.46-29.71h57.87v246.65Zm282.11-105.6H1544.22c.45,49.42,21,74.31,61.32,74.31,25.89,0,43.06-10.44,59.15-33.34l50.14,27.79c-22.08,37-61.86,56.33-115.38,56.33-76.76,0-122.55-49.42-122.55-135.09,0-86.67,46.33-136,121.46-136s119.83,47.88,119.83,132.54C1718.2,1622.41,1717.65,1626.86,1717.65,1631.32Zm27.51-227.5h-27v74.68h-14.26v-74.68H1677v-11.45h68.14v11.45Zm112.1,74.68h-14.17v-71.87h-.45l-28.07,71.87h-9.09l-28.25-71.87h-.36v71.87h-14.26v-86.13h22l25.71,65.32,25.26-65.32h21.72v86.13Z"/><path class="cls-1" d="M286.83,1542.29c-51.24,0-60.59,46.16-60.59,79.49s9.36,79.59,60.59,79.59,60.59-46.25,60.59-79.59S338.07,1542.29,286.83,1542.29Z"/></svg>