<svg xmlns="http://www.w3.org/2000/svg" viewBox="0 0 5734.04 1948.69"><defs><style>.cls-1{fill:#fff;}</style></defs><title>meetic</title><g id="Calque_1" data-name="Calque 1"><path class="cls-1" d="M2706.61,906c8.95,3.83,15.34,16.62,17.89,23,6.39,11.5,2.56,34.51-6.39,39.62-8.95,10.23-17.89,20.45-25.56,30.68A431.77,431.77,0,0,0,2706.61,906Z"/><path class="cls-1" d="M2590.3,1904.2C2445.87,1435.12,1670,1681.8,1670,962.2c0-299.09,187.89-510,472.91-510,336.15,0,447.35,245.4,447.35,568.77H1868.15c0,485.69,607.12,340,722.15,623.73ZM2389.63,883c0-154.66-90.75-281.19-250.52-281.19-181.5,0-256.91,150.82-271,281.19Z"/><path class="cls-1" d="M2669.55,1644.73c115-282.47,722.15-138,722.15-623.73H2669.55c0-324.65,111.2-568.77,447.35-568.77,285,0,472.91,210.89,472.91,510,0,718.32-775.83,471.64-920.26,942C2669.55,1836.45,2669.55,1707.36,2669.55,1644.73ZM3391.7,883c-14.06-130.37-89.47-281.19-271-281.19C2961,601.77,2870.21,728.3,2870.21,883Z"/><path class="cls-1" d="M85.14,479.07H259V624.77h3.83c71.58-116.31,172.55-170,320.81-170,116.31,0,233.9,58.79,286.3,195.56,69-144.43,221.12-195.56,311.87-195.56,256.91,0,350.21,166.16,350.21,386v646.74H1346.67V886.79c0-124-29.4-281.19-180.22-281.19C976,605.6,901.87,790.93,901.87,978.82v508.7H716.54V886.79c0-124-29.4-281.19-180.22-281.19-190.44,0-264.58,185.33-264.58,373.22v508.7H85.14Z"/><path class="cls-1" d="M4381,629.89H4113.85V1182c0,116.31,71.58,180.22,155.93,180.22,57.52,0,98.42-17.89,126.54-35.79V1485c-40.9,11.5-98.42,26.84-158.49,26.84-191.72,0-310.59-90.75-310.59-292.7V629.89H3699.73V479.07h227.51V246.44l185.33-58.79V479.07H4379.7V629.89Z"/><path class="cls-1" d="M4755.48,254.11H4545.86V44.5h209.62Zm-196.83,225H4744V1487.52H4558.64Z"/><path class="cls-1" d="M5625.89,649.06c-71.58-29.4-141.87-43.46-201.95-43.46-207.06,0-324.65,185.33-324.65,377.05,0,180.22,97.14,378.33,336.15,378.33,62.63,0,141.87-19.17,199.39-57.52l14.06,166.16c-76.69,35.79-166.16,40.9-233.9,40.9-304.2,0-513.81-239-513.81-527.87,0-306.75,205.78-527.87,513.81-527.87,75.41,0,172.55,17.89,225,39.62Z"/></g></svg>