<svg id="Layer_1" data-name="Layer 1" xmlns="http://www.w3.org/2000/svg" viewBox="0 0 6039.52 1948.69"><defs><style>.cls-1{fill:#fff;}</style></defs><title>lebara</title><path class="cls-1" d="M283.89,152.68c-65.4,0-124.47,23-166.25,64.74A233.59,233.59,0,0,0,48.8,383.62v792.56H834.14a233.5,233.5,0,0,0,166.22-68.83,236.68,236.68,0,0,0,68.82-166.21V152.68ZM102.52,711V635h229.6a150,150,0,0,1,15,.79C405.68,642.63,443.39,672,484.4,711Zm913,116.41h-216C662.26,827.41,595,762.1,530,699c-54.4-52.81-105.8-102.71-203.24-105.81l-8.71-.14H102.58V518.2h237.5c122.29,6.69,186,67.78,247.4,127.43,58.6,56.84,109.16,105.95,213.31,105.95h214.66v75.83Zm0-116.41H791.6c-71.71-2.42-111.36-32.69-157-76h380.9v76Zm0-116.65H592.34c-29-27.37-61-54.65-100.73-76h523.87Z"/><path class="cls-1" d="M5164.28,398.18c-18.32-2.81-36.61-2.81-62-2.81-150.74,0-226.72,76.06-264.78,138h-4.24V420.75H4658.57v756.4h174.67V775.74c1.4-53.57,1.4-201.5,224-202.91,57.78,0,90.14,9.9,107,14.16Z"/><path class="cls-1" d="M2333.15,395.37c-278.89,0-419.82,187.36-419.82,401.46,0,236.67,162,405.67,432.51,405.67,280.35,0,381.75-190.11,394.43-252.16H2548.65c-25.33,59.15-98.56,111.3-208.45,111.3-215.52-8.45-242.31-166.19-249.36-214.09h663.5C2754.35,574.24,2617.75,398.18,2333.15,395.37Zm-236.67,317C2131.7,567.2,2237.35,536.2,2328.9,536.2c125.41,0,212.78,47.87,239.54,176.13Z"/><path class="cls-1" d="M3275.36,395.37c-145.09,0-215.58,50.69-290.2,104.21V153H2810.48v1024.1h171.86V1080c36.64,38,126.78,122.54,300,122.54C3496.53,1202.5,3681,1050.36,3681,794,3681,564.42,3524.71,395.37,3275.36,395.37ZM3243,1053.2c-119.75,0-190.18-57.76-257.83-109.86V648.94c53.57-43.67,125.41-104.25,252.19-104.25,133.82,0,266.21,84.54,266.21,254.93C3503.56,965.88,3378.19,1053.2,3243,1053.2Z"/><path class="cls-1" d="M4409.29,1176.5h175V417.21h-175v62c-46.62-51.23-146.18-84.07-250.4-84.07-301.44,0-424.05,200-424.05,402.9,0,301.45,216.94,404.27,424.05,404.27,86.47,0,199.12-38.29,250.4-96.87ZM4158.89,1053c-156.43,0-246.52-97.16-246.52-257.77,0-177.5,112.65-250.73,246.52-250.73,132.41,0,246.44,73.23,246.44,250.73C4405.33,955.84,4315.26,1053,4158.89,1053Z"/><path class="cls-1" d="M5815.75,1176.5h175V417.21h-175v62c-46.62-51.23-146.18-84.07-250.4-84.07-301.44,0-424.07,200-424.07,402.9,0,301.45,217,404.27,424.07,404.27,86.47,0,199.12-38.29,250.4-96.87ZM5565.35,1053c-156.43,0-246.52-97.16-246.52-257.77,0-177.5,112.65-250.73,246.52-250.73,132.41,0,246.44,73.23,246.44,250.73C5811.79,955.84,5721.72,1053,5565.35,1053Z"/><path class="cls-1" d="M1874,999.48H1447.75V153H1270V1177.12h742.2C1950.66,1131,1904,1070.56,1874,999.48Z"/><path class="cls-1" d="M3785.29,1435.36h52.21v48.84c40.13-34.1,81.61-59.54,139.17-59.54,76.25,0,97,36.8,111.07,62.23,54.83-46.16,91-62.23,142.5-62.23,32.1,0,128.44,6.69,128.44,107.74v252.89h-54.19V1552.45c0-21.41,0-81.62-76.92-81.62-60.9,0-105.72,40.16-128.47,61.56v252.89h-54.18V1552.45c0-21.41,0-81.62-75.63-81.62-62.22,0-107.06,40.16-129.8,61.56v252.89h-54.19V1435.36Z"/><path class="cls-1" d="M4414.21,1604c0-99.71,79-179.33,202.06-179.33s201.41,79.61,201.41,179.33c0,123.77-82.27,192-201.41,192S4414.21,1727.74,4414.21,1604Zm349.27,6.68c0-63.56-41.49-139.82-147.21-139.82s-147.85,76.28-147.85,139.82c0,83.63,56.2,139.17,147.85,139.17S4763.49,1694.29,4763.49,1610.66Z"/><path class="cls-1" d="M4930.06,1298.87v184.66c46.83-35.44,84.31-58.87,156.57-58.87,149.88,0,200.74,107.74,200.74,188.68,0,79.61-56.2,182.67-194,182.67-77.62,0-113.73-22.75-165.95-65.58L4914,1785.27h-42.16c.68-10.69,4-56.2,4-65.58V1298.87Zm0,376.69c33.47,36.16,93.69,74.29,151.9,74.29,95,0,151.18-62.92,151.18-135.17,0-106.37-77.59-143.84-149.85-143.84-75.61,0-121.11,35.46-153.24,68.91v135.81Z"/><path class="cls-1" d="M5401.06,1298.87v62.23h-62.22v-62.23Zm-57.52,136.5h54.18v349.93h-54.18Z"/><path class="cls-1" d="M5478.68,1298.87h54.19v486.41h-54.19Z"/><path class="cls-1" d="M5976.46,1712.35c-36.13,38.15-70.9,83.66-190,83.66-117.78,0-198-80.3-198-187.36,0-111.07,83.63-184,191.34-184,111.76,0,209.43,58.2,206.76,196.71H5642.62c5.37,65.58,58.2,128.48,149.21,128.48,90.3,0,120.42-40.83,142.52-68.24Zm-48.85-137.15c-10.69-57.55-60.2-104.37-143.17-104.37-79.61,0-124.45,40.16-139.84,104.37Z"/></svg>