<svg xmlns="http://www.w3.org/2000/svg" viewBox="0 0 2794.72 1948.69"><defs><style>.cls-1{fill:#fff;}</style></defs><title>emirates</title><g id="VARG"><path class="cls-1" d="M1565.11,155.4c-14.68,14.68-33.55,50.33-33.55,100.66V566.45c0,25.17-10.49,50.33-25.17,65-8.39,8.39-58.72,52.43-60.82,56.62h29.36c8.39-8.39,100.66-90.18,111.15-100.66,12.58-14.68,41.94-50.33,41.94-107V182.66c0-44,21-69.21,31.46-81.79s46.14-41.94,54.53-50.33h-29.36c-10.49,4.19-111.15,94.37-119.54,104.86"/><path class="cls-1" d="M1336.52,1285.78l113.25,98.57h75.5c77.6,0,146.8-33.55,192.94-79.69s62.92-109.05,62.92-167.77V975.39a121.83,121.83,0,0,0-44-94.37c-4.19-4.19-37.75-35.65-37.75-35.65V969.1s35.65,37.75,44,44c33.55,35.65,33.55,100.66-73.4,203.43-18.87,18.87-71.3,67.11-144.71,67.11-10.49,2.1-188.75,2.1-188.75,2.1"/><path class="cls-1" d="M1795.8,713.25s31.46,37.75,46.14,46.14c41.94,33.55,60.82-4.19,33.55-48.24-8.39-8.39-33.55-27.26-79.69,2.1M1649,623.07c-12.58,12.58-25.17,46.14-25.17,75.5v60.82h62.92c25.17,0,46.14-18.87,62.92-33.55V665s16.78,18.87,29.36,33.55c21-18.87,73.4-75.5,113.25-75.5,79.69,0,60.82,98.57,29.36,130-10.49,10.49-56.62,52.43-71.3,67.11-37.75,35.65-100.66,18.87-100.66-73.4,0,0-69.21,65-79.69,73.4s-46.14,46.14-46.14,46.14v161.48c0,77.6-23.07,104.86-46.14,125.83-10.49,10.49-94.37,83.89-109.05,98.57h-29.36s54.53-46.14,62.92-56.62c12.58-12.58,25.17-35.65,25.17-77.6,0-10.49-2.1-253.76-2.1-253.76H1128.9c-138.41,0-167.77-153.09-167.77-192.94V518.21c0-25.17-16.78-67.11-41.94-79.69H959c4.19,2.1,29.36,12.58,29.36,104.86,0,0-2.1,109.05-2.1,115.34,0,48.24,37.75,102.76,92.28,102.76h448.8c0-12.58,12.58-58.72,33.55-81.79C1573.5,665,1670,579,1680.46,568.54h29.36C1707.72,570.64,1659.48,612.58,1649,623.07Z"/><path class="cls-1" d="M1315.55,1004.76c0,21-69.21,79.69-73.4,83.89-4.19-23.07-23.07-48.24-73.4-100.66l75.5-75.5c52.43,48.23,71.3,60.82,71.3,92.28"/><path class="cls-1" d="M1183.42,558.06c-21,21-25.17,27.26-44,37.75h237c65,0,50.33-39.85,39.85-60.82-23.07-41.94-98.57-117.44-98.57-117.44s-130,136.32-134.22,140.51m264.24-421.53c14.68,14.68,48.24,56.62,27.26,75.5l-44,44c-2.1-10.49-27.26-33.55-27.26-33.55V304.3c0,33.55-12.58,41.94-12.58,41.94s60.82,60.82,60.82,138.41v79.69c0,16.78-4.19,27.26-14.68,39.85l-71.3,71.3c-16.78,14.68-33.55,16.78-46.14,16.78H1110c-33.55,0-67.11-25.17-67.11-52.43v-77.6c10.49,12.58,21,27.26,48.24,27.26,21,0,41.94-16.78,48.24-23.07s159.39-165.68,159.39-165.68-71.3-67.11-119.54-98.57c-23.07-14.68-54.53,4.19-58.72,25.17-14.68,62.92,0,159.39,0,159.39L1061.79,428c-23.07-23.07-23.07-75.5,6.29-104.86,4.19-4.19,46.14-52.43,100.66-52.43h83.89c56.62,0,117.44,54.53,117.44,54.53s8.39-10.49,8.39-18.87V201.54c-41.94-41.94-48.24-86-27.26-107C1391,61,1403.63,46.35,1403.63,46.35S1403.63,92.48,1447.67,136.53Z"/><path class="cls-1" d="M915,774.07H875.14s41.94,23.07,41.94,81.79V1044.6c0,123.73,100.66,237,224.4,237h102.76c60.82,0,83.89-14.68,121.64-48.24,12.58-12.58,31.46-31.46,37.75-39.85,21-23.07,44-44,44-107v-62.92c0-52.43-31.46-75.5-46.14-90.18l-35.65-35.65v125.83s25.17,27.26,37.75,35.65c52.43,41.94,10.49,115.34-37.75,115.34H1139.38c-86,0-195-71.3-195-197.13V874.73C942.25,774.07,915,774.07,915,774.07"/><path class="cls-1" d="M1162.45,1004.76c0,21-69.21,79.69-73.4,83.89-4.19-23.07-23.07-48.24-73.4-100.66l75.5-75.5c50.33,50.33,71.3,60.82,71.3,92.28"/><path class="cls-1" d="M369.72,1845.72H248.08c-37.75,0-35.65-31.46-37.75-58.72V1612.94H267c33.55,0,75.5-4.19,115.34,18.87,0,0-29.36-71.3-117.44-71.3H210.34V1506s0-48.24-12.58-62.92h79.69c69.21,0,123.73,0,178.26,35.65,0,0-10.49-92.28-144.71-92.28H48.85s46.14,39.85,44,117.44L95,1820.56c0,79.69,31.46,81.79,31.46,81.79h258c58.72,0,79.69-41.94,79.69-65v-31.46c2.1,0-16.78,39.85-94.37,39.85"/><path class="cls-1" d="M1055.5,1818.46v-222.3c0-86-71.3-109.05-121.64-109.05-69.21,0-90.18,58.72-98.57,77.6-14.68-54.53-69.21-77.6-113.25-77.6-83.89,0-104.86,79.69-104.86,79.69s-2.1-77.6-69.21-77.6H483s37.75,14.68,37.75,81.79v245.37c0,81.79,33.55,81.79,33.55,81.79H663.33c-2.1,0-41.94-29.36-41.94-83.89V1600.35c2.1-10.49,16.78-41.94,65-41.94,25.17,0,54.53,27.26,54.53,58.72v201.33c0,81.79,31.46,81.79,31.46,81.79H881.43s-41.94-29.36-41.94-83.89V1598.26c4.19-12.58,18.87-41.94,60.82-41.94,31.46,0,58.72,27.26,58.72,58.72v201.33c0,83.89,31.46,81.79,31.46,81.79h109.05s-44-25.17-44-79.69"/><path class="cls-1" d="M1246.34,1818.46c0,54.53,41.94,81.79,41.94,81.79H1179.23s-31.46,0-31.46-81.79h0V1571c0-65-37.75-81.79-37.75-81.79h65c23.07,0,71.3,0,71.3,92.28v237h0"/><path class="cls-1" d="M1579.79,1520.66s-10.49-29.36-56.62-29.36c-69.21,0-86,81.79-86,81.79-6.29-62.92-23.07-81.79-69.21-81.79h-65s37.75,16.78,37.75,81.79v245.37c0,81.79,33.55,81.79,33.55,81.79h107c-2.1,0-41.94-29.36-41.94-83.89V1615c2.1-18.87,12.58-31.46,27.26-41.94,35.65-23.07,83.89-16.78,113.25,16.78,0,0,0-41.94,0-69.21"/><path class="cls-1" d="M2085.21,1537.44c37.75,0,65,16.78,65,16.78V1491.3H2060v-94.37s-23.07,41.94-73.4,81.79c-31.46,25.17-96.47,56.62-96.47,56.62h69.21v285.22c0,79.69,33.55,79.69,33.55,79.69h107s-41.94-27.26-41.94-79.69V1535.34c29.36,2.1,8.39,2.1,27.26,2.1"/><path class="cls-1" d="M2347.36,1633.91c18.87-33.55,31.46-117.44-29.36-113.25-71.3,6.29-56.62,195-56.62,195,23.07-25.17,58.72-31.46,86-81.79m67.11,27.26c-60.82,62.92-109.05,52.43-146.8,100.66,0,0,6.29,62.92,54.53,86,16.78,8.39,83.89,29.36,127.93-46.14V1873s-27.26,29.36-117.44,29.36c-107,0-178.26-83.89-178.26-197.13,0-111.15,60.82-216,172-216C2435.44,1487.11,2494.16,1577.28,2414.47,1661.17Z"/><path class="cls-1" d="M1193.91,1457.75c27.26,0,50.33-21,50.33-48.24s-23.07-50.33-50.33-50.33-50.33,23.07-50.33,50.33,23.07,48.24,50.33,48.24"/><path class="cls-1" d="M2653.54,1789.1c0,29.36-25.17,67.11-79.69,67.11s-77.6-58.72-77.6-58.72v73.4s39.85,29.36,102.76,29.36h0c75.5,0,148.9-56.62,146.8-134.22,0-27.26-10.49-52.43-25.17-71.3-25.17-33.55-71.3-58.72-107-79.69-48.24-29.36-41.94-90.18,29.36-83.89,54.53,4.19,77.6,56.62,77.6,56.62v-69.21S2678.71,1485,2615.8,1485c-65,0-123.73,44-121.64,98.57,2.1,48.24,21,79.69,60.82,109.05,16.78,12.58,35.65,23.07,56.62,35.65,29.36,18.88,41.94,39.85,41.94,60.82"/><path class="cls-1" d="M1766.44,1581.48c0,39.85-33.55,58.72-56.62,67.11-65,27.26-146.8,58.72-146.8,153.09,0,62.92,46.14,98.57,109.05,98.57,48.24,0,73.4-25.17,86-50.33,8.39,46.14,31.46,48.24,31.46,48.24h109.05s-41.94-29.36-41.94-81.79V1585.67c0-54.53-60.82-98.57-125.83-98.57-62.92,0-102.76,29.36-102.76,29.36v71.3s23.07-56.62,79.69-56.62c44,4.19,58.72,27.26,58.72,50.33m-58.72,272.63c-33.55,0-56.62-18.87-56.62-56.62,0-92.28,83.89-111.15,107-138.41v172C1753.86,1831,1741.27,1854.11,1707.72,1854.11Z"/></g></svg>