<svg id="Layer_1" data-name="Layer 1" xmlns="http://www.w3.org/2000/svg" viewBox="0 0 6039.52 1948.69"><defs><style>.cls-1{fill:#fff;}</style></defs><title>desigual</title><path class="cls-1" d="M810.88,335.22c-94.71-43.18-218.12-52.46-352.42-53v-.12H78.3v3.22c-.32,1-.22,2.9,0,6.64v997.27h-.19V1386H458.27v-.11c132.85-.47,255.19-9.37,349.91-50.45,178.3-77.33,281.13-244.76,281.13-500.12C1089.3,578,987.39,415.7,810.88,335.22ZM770.33,1011c-62.07,126.31-217.44,131.38-405.48,124.34V540.67c-.23-3.84-.44-7.66,2.71-8.1C615.79,513.66,770.25,565.39,800.07,765,812.72,849.67,800.73,949.17,770.33,1011Z"/><path class="cls-1" d="M1743.48,597.42c-96.93-44.33-259.65-44.54-356.81-5.4-171.9,69.22-304.07,252.4-254.11,497.4,39.24,192.3,181.86,299.09,392,316.26,204,16.65,389.42-75.52,432.51-264.91H1716.46c-33.05,68-123.36,110.21-216.25,81.08-69.08-21.66-110.54-89.5-113.54-173h586.6C1979.12,823.7,1894.23,666.37,1743.48,597.42ZM1386.67,900.19C1404,809.43,1458.86,736.52,1557,738c91.12,1.39,140.71,73,154.09,162.2Z"/><path class="cls-1" d="M3957.44,583.51H3706l.14,101.46c-52.5-77.05-123.55-134.12-259.65-122.68a322,322,0,0,0-191.93,83.79c-70.18,64.13-107.55,162.05-116.25,270.32-8.77,108.76,13.49,229.4,73,310.88,56.82,77.84,159.8,124.5,270.3,124.36,96-.14,160-45.64,202.74-97.35,4.68-5.62,9.44-15.74,18.94-16.22.73,95.62,4,184.47-43.25,227.09-46.77,42.19-167.06,39.76-208.16,0-7.21-7-11.93-17.74-16.22-27-4.11-9-8.81-18.93-13.52-29.74h-256.8c14.61,130.35,89.81,202.31,208.15,235.16,117.45,32.61,278.55,32,389.26-10.81,102.51-39.58,172.79-133.23,189.22-254.07,10.52-77.38,5.43-167.3,5.43-261.83C3957.4,937.53,3957.44,583.51,3957.44,583.51Zm-381.15,565.36c-97.94,12.88-165.75-56.76-175.72-148.66-13.68-126.06,29.2-221,129.75-235.18,43.82-6.16,85.27,4.56,110.81,24.31C3738.87,864.94,3738.23,1127.65,3576.29,1148.87Z"/><path class="cls-1" d="M5633.4,1059.7c0-91.46,6.43-185.32,0-264.92-16.36-202-212.55-247.65-432.51-232.48-170.18,11.72-311.24,88-319,270.3h243.29c9.43-20.57,9.82-37.36,21.63-54.06,43.78-62,210.51-65.87,232.48,16.22,22.52,84.26-51.43,91.91-121.67,102.72C5110,920.19,4962.08,928.68,4890,1021.82c-67.68,87.49-43.86,248.11,21.63,313.6,46.3,46.3,119.5,69,191.93,73,105.15,5.81,198.62-31.15,254.08-75.68,8.66-7,18.75-15,29.72-18.94-1.12,19.36,5.11,51.81,13.52,70.29h262.2C5626.61,1302.61,5633.43,1178,5633.4,1059.7Zm-340.58,175.69c-65.25,22.31-160.62,9.61-178.43-51.37a103,103,0,0,1,2.71-64.86c29-76.4,177-69.11,256.8-102.72-.5-2.33,1-2.58,2.71-2.71,2.29-.5,2.54,1,2.71,2.71C5384.35,1116.39,5367.35,1209.85,5292.83,1235.39Z"/><path class="cls-1" d="M2503.09,1194.83c-52.7,61.34-248.57,61-237.87-48.64,3.87-39.77,52.92-59.86,94.61-70.29,132.11-33.08,296.09-46.14,364.94-132.48,34.83-43.71,49.52-131.16,35.14-194.63-9.9-43.65-44.54-87.09-70.3-108.13-74.57-61-210-87.27-348.71-78.39-165.73,10.62-296.37,77.26-310.87,256.79h241.24c5.47-21.9,7.79-40.66,23.68-56.76,47.78-48.44,210.24-43.47,208.14,29.74-.93,32.8-39.68,53.66-70.27,64.87-99.57,36.46-248.35,38.12-324.4,83.8-52.89,31.78-102.3,90.72-105.42,175.71-3.06,83.22,26.76,147,73,191.93,139.52,135.63,505.74,136.47,638-8.13,38.75-42.37,60.58-105.32,64.86-178.34h-248.7C2524.66,1150,2520.74,1174.27,2503.09,1194.83Z"/><path class="cls-1" d="M4554.81,945.7c0,36.12-2.82,71.27-5.73,101.32-2,20.24-11.17,44.41-15.86,55.93-26.51,64.74-125.29,124.71-210.87,67.57-27.65-18.47-44.34-57.64-45.92-97.3-5.84-146.66-3.8-489.25-3.8-489.25s-58.48.44-146.38.33h-8c-30.79,0-65-.17-101.39-.37-.22,0-.18.32-.36.37h-5.73V941.73h.75c-4.33,199.36,7.73,378.18,145.93,439.66,20.87,9.25,48.75,17.62,73,21.59,109.91,18.1,207.92-13.34,267.6-62.18,22.56-18.44,36.56-43.92,56.76-62.15v105.41h256.84V583.92H4554.84V945.7Z"/><rect class="cls-1" x="5701.01" y="283.85" width="260.41" height="1100.19"/><rect class="cls-1" x="2830.18" y="586.61" width="262.21" height="797.44"/><rect class="cls-1" x="2830.18" y="283.85" width="262.21" height="202.74"/></svg>