<svg id="Layer_1" data-name="Layer 1" xmlns="http://www.w3.org/2000/svg" viewBox="0 0 2093.41 1948.69"><defs><style>.cls-1{fill:#fff;}</style></defs><title>axa</title><polygon class="cls-1" points="486.57 1408.54 676.8 1408.54 618.68 1233.28 486.57 1408.54"/><polygon class="cls-1" points="873.2 1557.38 903.15 1653.38 952.47 1589.96 919 1494.85 873.2 1557.38"/><polygon class="cls-1" points="1208.76 1408.54 1392.82 1408.54 1334.7 1233.28 1208.76 1408.54"/><path class="cls-1" d="M2019,41.67,1257.19,1051H1140.94L1902.76,41.67H50.62V1907H2042.79V41.67Zm-516.1,1742c-6.16-43.15-12.33-63.41-20.26-88.07l-62.53-200.8H1140.94l-50.2,66.05,44.92,135.63c8.81,28.18,18.49,51.08,35.23,87.19H1012.36l-26.42-87.19-63.41,87.19H794.82l-27.3-86.31-66.93,86.31H573.76c3.52-2.64,5.28-5.28,7.93-7.93,32.59-28.18,52.84-54.6,70.46-78.38l81-106.57-31.71-96H423.16L205.62,1783.72H70c51.08-44,64.29-58.13,83.67-83.67l412.17-544.28c5.28-7.93,10.57-15,15-23.78a130.11,130.11,0,0,0,18.49-44.92H733.17c0,29.94,4.4,46.68,10.57,68.7L838,1449.93l48.44-63.41-76.62-234.27c-5.28-16.73-12.33-39.63-26.42-66.05H945.42c4.4,26.42,8.81,46.68,15.85,69.58l29.94,91.59,69.58-92.47c15.85-21.14,37-45.8,46.68-68.7h141.79c-28.18,22-45.8,45.8-62.53,67.81L1030,1362.74l27.3,86.31,225.46-294.16c5.28-8.81,12.33-16.73,18.49-24.66a144.74,144.74,0,0,0,19.38-44h132.11a305.2,305.2,0,0,0,11.45,65.17L1635,1695.65c7.93,29.06,14.09,46.68,35.23,87.19H1502.91Z"/></svg>